<svg xmlns="http://www.w3.org/2000/svg" viewBox="0 0 1248.26 347.15"><defs><style>.cls-1{fill:#fff;}</style></defs><g id="Capa_2" data-name="Capa 2"><g id="Capa_1-2" data-name="Capa 1"><g id="dgNYcJ.tif"><path class="cls-1" d="M0,159.69V127.78c2.49-16.51,6.32-32.69,14.22-47.5C42.45,27.3,87,.65,146.85.26,219.19-.22,1028.06.09,1100.41.2a180.45,180.45,0,0,1,29.77,2.45c78.26,13.28,131.66,91.89,115,169.53-14.54,67.94-72,114.44-141.61,114.51-51.56.05-839.64.06-891.19-.07a18.39,18.39,0,0,0-11.9,3.93c-22.4,17-44.95,33.73-67.39,50.63a32.55,32.55,0,0,1-11.38,6h-3c-11.1-3.61-14.23-7.91-14.25-19.7,0-12.95-.28-25.91.12-38.85.16-5.33-1.81-7.42-6.7-9.07-36.8-12.39-64.27-35.89-82.49-70.18C7.16,193.75,2.69,177,0,159.69ZM992.1,31.43c-36.42,0-809.36.06-845.77-.05a150.26,150.26,0,0,0-18.4,1.19C61,40.65,15.74,109,35,173.92c12.64,42.57,41.45,69,84.8,79.25C132,256.05,136,260.79,136,273.28c0,7,0,14,0,20.93,0,1.43-.71,3.37.76,4.15s2.65-.94,3.78-1.79c14.65-10.94,29.52-21.61,43.8-33,7.47-6,15.31-8.32,24.77-8.27,51.71.25,839.94.14,891.66.09a143.11,143.11,0,0,0,20.88-1.1c76.59-11.33,119.24-97.2,81.21-164.58-21.47-38.05-55-57.3-98.55-58.12C1066.93,30.88,1029.51,31.44,992.1,31.43Z"/><path class="cls-1" d="M158,176.13c-.37,5.13-2.63,9.5-7.87,11.87-5.59,2.53-10.72,1.32-15-2.73-5.71-5.38-11.17-11-16.72-16.58-5-4.95-10-9.83-14.81-14.87-6.31-6.56-6.33-14,0-20.46q15.32-15.57,30.89-30.88c5.95-5.85,14.13-6,19.54-.58s5.24,13.52-.57,19.54q-9.37,9.7-19.1,19.06c-2.44,2.35-2.37,4,.05,6.28,6.38,6.13,12.54,12.49,18.82,18.72A15.26,15.26,0,0,1,158,176.13Z"/><path class="cls-1" d="M1111.63,98a14.41,14.41,0,0,1,10.43,4.31c10.41,10.39,20.89,20.71,31.19,31.21,6.19,6.32,6.23,13.82,0,20.15q-15.42,15.78-31.19,31.19c-6,5.89-14.2,5.9-19.54.39s-5.1-13.5.79-19.54c6.18-6.34,12.41-12.63,18.81-18.75,2.54-2.42,2.65-4.1.06-6.59q-10-9.65-19.66-19.7a12.73,12.73,0,0,1-2.62-14.68C1102.19,100.75,1106.49,98.29,1111.63,98Z"/><path class="cls-1" d="M1032.82,175.32a13.31,13.31,0,0,1,1.15-5.46c8.34-20.81,16.61-41.65,25-62.43,3.74-9.23,13.64-12.29,21-6.71a13.16,13.16,0,0,1,4.33,15.41q-12.75,32.51-25.94,64.84a13.09,13.09,0,0,1-15,8C1036.87,187.49,1032.76,182.31,1032.82,175.32Z"/></g><path class="cls-1" d="M224.38,109.08v21.71H248.8a14,14,0,0,1,9.27,3.13,10.68,10.68,0,0,1,3.75,8.68,10.4,10.4,0,0,1-3.8,8.45,13.91,13.91,0,0,1-9.22,3.16H224.38v22.08h27a14,14,0,0,1,9.33,3.09q3.64,3.09,3.65,8.68a10.59,10.59,0,0,1-3.72,8.5,13.8,13.8,0,0,1-9.26,3.15H214.11q-7.56,0-11.73-4.18T198.2,183.8V101.56q0-7.43,4.2-11.66t11.71-4.24h37.28a13.83,13.83,0,0,1,9.33,3.13,10.84,10.84,0,0,1,3.65,8.68,10.52,10.52,0,0,1-3.72,8.46,13.8,13.8,0,0,1-9.26,3.15Z"/><path class="cls-1" d="M308.33,130.62v56.27a15.69,15.69,0,0,1-3.45,10.35q-3.44,4.19-9.58,4.18a11.93,11.93,0,0,1-9.6-4.2,15.47,15.47,0,0,1-3.55-10.33V97.47a13.68,13.68,0,0,1,3.59-9.64A12,12,0,0,1,295,84q6.46,0,10.94,5.8l50.43,63.45V98.48a15.57,15.57,0,0,1,3.51-10.34A11.93,11.93,0,0,1,369.51,84,11.75,11.75,0,0,1,379,88.12a15.66,15.66,0,0,1,3.49,10.36v87.91q0,7.31-3.43,11.11a12.13,12.13,0,0,1-8.74,3.92q-6.76,0-10.41-5Z"/><path class="cls-1" d="M480.48,155.58H465.29a14,14,0,0,1-9.27-3.11,11.58,11.58,0,0,1,0-17,14,14,0,0,1,9.31-3.11h28q7.68,0,10.85,4.18t3.18,12.39q0,22.64-14.86,38.33-14.66,15.41-37.45,15.4A59.43,59.43,0,0,1,431.73,198a52.21,52.21,0,0,1-19-13.53Q398.42,168,398.41,141.72a60,60,0,0,1,7.52-29.53A56.18,56.18,0,0,1,455.86,82.9q18.36,0,32.14,8.22,10.85,6.64,11.48,14.35a12.78,12.78,0,0,1-3.4,8.93,10.59,10.59,0,0,1-8.08,3.71q-4,0-9.23-3.26l-6.68-4.26q-6.42-4.26-16.07-4.27a25.88,25.88,0,0,0-16.3,5.21,31.6,31.6,0,0,0-10.08,13.56,49.79,49.79,0,0,0-.08,35.65,30.52,30.52,0,0,0,9.89,13.37q6.63,5.1,16.24,5.1,12.76,0,19.16-8.7Q478.65,165.34,480.48,155.58Z"/><path class="cls-1" d="M678.38,109.08v77.81a15.62,15.62,0,0,1-3.48,10.38,13.23,13.23,0,0,1-19.29-.05A15.38,15.38,0,0,1,652,186.89V109.08H636.51a14,14,0,0,1-9.26-3.11,10.43,10.43,0,0,1-3.76-8.5,10.73,10.73,0,0,1,3.74-8.64,13.86,13.86,0,0,1,9.28-3.17h56.94a13.85,13.85,0,0,1,9.29,3.13,10.75,10.75,0,0,1,3.7,8.68,10.49,10.49,0,0,1-3.76,8.46,13.87,13.87,0,0,1-9.23,3.15Z"/><path class="cls-1" d="M745.76,109.08v21.71h24.42a14,14,0,0,1,9.27,3.13,10.69,10.69,0,0,1,3.76,8.68,10.43,10.43,0,0,1-3.8,8.45,14,14,0,0,1-9.23,3.16H745.76v22.08h27a14,14,0,0,1,9.33,3.09q3.66,3.09,3.65,8.68a10.61,10.61,0,0,1-3.71,8.5,13.85,13.85,0,0,1-9.27,3.15H735.49q-7.56,0-11.73-4.18t-4.17-11.73V101.56q0-7.43,4.19-11.66t11.71-4.24h37.28a13.83,13.83,0,0,1,9.33,3.13,10.81,10.81,0,0,1,3.65,8.68,10.54,10.54,0,0,1-3.71,8.46,13.85,13.85,0,0,1-9.27,3.15Z"/><path class="cls-1" d="M799.24,139.34A60.49,60.49,0,0,1,803.33,117,53.11,53.11,0,0,1,815,98.89a52.36,52.36,0,0,1,18-11.83,60.5,60.5,0,0,1,22.64-4.16,69.86,69.86,0,0,1,14.58,1.7,37.84,37.84,0,0,1,13.67,5.65q5.79,4,5.79,10.27a14.29,14.29,0,0,1-2.63,8.81,8.92,8.92,0,0,1-7.6,3.51q-3,0-9.77-2.55a35.92,35.92,0,0,0-13.31-2.92q-9.85,0-16.39,4.65a27.76,27.76,0,0,0-9.71,12.55,47.18,47.18,0,0,0-3.17,17.7q0,19.62,9.77,28.72,7.68,7.17,19.33,7.18a26.73,26.73,0,0,0,10.39-1.71l7.73-3.59a14.7,14.7,0,0,1,5.13-1.22,10.11,10.11,0,0,1,8.27,3.68,13.25,13.25,0,0,1,3,8.64q0,7.4-8.06,12.15-10.81,6.51-27.86,6.51a57.94,57.94,0,0,1-20.67-3.78,51.38,51.38,0,0,1-17.5-11Q799.23,171.36,799.24,139.34Z"/><path class="cls-1" d="M981,153H932.49v33.85A15.69,15.69,0,0,1,929,197.24q-3.43,4.19-9.58,4.18a11.93,11.93,0,0,1-9.6-4.2,15.47,15.47,0,0,1-3.55-10.33V98.48a15.57,15.57,0,0,1,3.51-10.34A11.91,11.91,0,0,1,919.46,84,11.75,11.75,0,0,1,929,88.14a15.7,15.7,0,0,1,3.47,10.34v31.14H981V98.48a15.61,15.61,0,0,1,3.49-10.34A11.71,11.71,0,0,1,994,84a12,12,0,0,1,9.61,4.17,15.45,15.45,0,0,1,3.56,10.36v88.41a15.62,15.62,0,0,1-3.49,10.38,12,12,0,0,1-9.68,4.15,11.72,11.72,0,0,1-9.54-4.2A15.67,15.67,0,0,1,981,186.89Z"/><path class="cls-1" d="M586.49,142.5l10.71,10.72a15.52,15.52,0,0,1,4.87,9.8q.48,5.4-3.89,9.77a12,12,0,0,1-9.77,3.84,15.39,15.39,0,0,1-9.83-4.79l-10.72-10.71-11,11a14,14,0,0,1-8.75,4.35,10.4,10.4,0,0,1-8.66-3.35,10.71,10.71,0,0,1-3.47-8.75,13.83,13.83,0,0,1,4.32-8.81l40.26-40.26a13.9,13.9,0,0,1,8.79-4.36,10.79,10.79,0,0,1,8.75,3.53,10.48,10.48,0,0,1,3.32,8.63,13.91,13.91,0,0,1-4.3,8.76Z"/><path class="cls-1" d="M551,144.89l-10.84-10.83a15.62,15.62,0,0,1-4.87-9.8,13.23,13.23,0,0,1,13.67-13.61,15.39,15.39,0,0,1,9.83,4.79l10.83,10.83,11-11a14.09,14.09,0,0,1,8.76-4.36,10.48,10.48,0,0,1,8.66,3.35,10.77,10.77,0,0,1,3.47,8.76,13.89,13.89,0,0,1-4.33,8.81l-40.26,40.26a13.82,13.82,0,0,1-8.78,4.35,10.75,10.75,0,0,1-8.75-3.52A10.46,10.46,0,0,1,536,164.3a13.84,13.84,0,0,1,4.29-8.75Z"/></g></g></svg>