<svg xmlns="http://www.w3.org/2000/svg" viewBox="0 0 4835.15 4169.68"><defs><style>.cls-1{fill:#878787;}.cls-2{fill:#fff;}.cls-3{fill:#900fff;}.cls-4{fill:#e43f6a;}</style></defs><g id="Capa_2" data-name="Capa 2"><g id="Capa_1-2" data-name="Capa 1"><path class="cls-1" d="M320.11,0H2729.76a320.11,320.11,0,0,1,320.11,320.11v909.54a0,0,0,0,1,0,0H0a0,0,0,0,1,0,0V320.11A320.11,320.11,0,0,1,320.11,0Z"/><rect class="cls-1" x="2675.61" y="147.26" width="1573.65" height="223.12" rx="111.56"/><path class="cls-2" d="M4137.69,379.88H2787.17a121.06,121.06,0,1,1,0-242.12H4137.69a121.06,121.06,0,1,1,0,242.12ZM2787.17,156.76a102.06,102.06,0,1,0,0,204.12H4137.69a102.06,102.06,0,1,0,0-204.12Z"/><path class="cls-3" d="M0,2599.57H3049.87a0,0,0,0,1,0,0V3649.51a320.11,320.11,0,0,1-320.11,320.11H320.11A320.11,320.11,0,0,1,0,3649.51V2599.57a0,0,0,0,1,0,0Z"/><rect class="cls-4" y="1229.65" width="3049.87" height="1370.06"/><path class="cls-2" d="M1570.83,1797h-799c-98.18,0-178.06-79.87-178.06-178s79.88-178,178.06-178h799c98.18,0,178.06,79.87,178.06,178S1669,1797,1570.83,1797Zm-799-337.1c-87.7,0-159.06,71.35-159.06,159s71.36,159,159.06,159h799c87.71,0,159.06-71.35,159.06-159s-71.35-159-159.06-159Z"/><path class="cls-2" d="M1661.6,2395.6H681.1c-98.18,0-178-79.87-178-178S582.92,2039.5,681.1,2039.5h980.5c98.18,0,178.05,79.87,178.05,178.05a178,178,0,0,1-178.05,178ZM681.1,2058.5c-87.7,0-159.05,71.35-159.05,159.05s71.35,159,159.05,159h980.5a159,159,0,0,0,159.05-159c0-87.7-71.35-159.05-159.05-159.05Z"/><path class="cls-2" d="M1897,3197.55H445.67c-98.18,0-178-79.88-178-178.05s79.87-178.06,178.05-178.06H1897c98.18,0,178.06,79.88,178.06,178.06S1995.21,3197.55,1897,3197.55ZM445.67,2860.44c-87.7,0-159,71.35-159,159.06S358,3178.55,445.67,3178.55H1897c87.7,0,159.06-71.35,159.06-159.05s-71.36-159.06-159.06-159.06Z"/><path class="cls-2" d="M1644.91,3770.89H708.6c-98.18,0-178.05-79.87-178.05-178s79.87-178.05,178.05-178.05h936.31c98.18,0,178.06,79.87,178.06,178.05S1743.09,3770.89,1644.91,3770.89ZM708.6,3433.79c-87.7,0-159.05,71.35-159.05,159.05s71.35,159,159.05,159h936.31c87.71,0,159.06-71.35,159.06-159s-71.35-159.05-159.06-159.05Z"/><path class="cls-2" d="M775,1681.62V1559.67a21.51,21.51,0,0,1,4.83-14.26q4.85-5.78,13.3-5.78t13.19,5.78a21.63,21.63,0,0,1,4.78,14.26v121.95a21.68,21.68,0,0,1-4.75,14.28q-4.76,5.76-13.22,5.76t-13.24-5.79A21.33,21.33,0,0,1,775,1681.62Z"/><path class="cls-2" d="M882.05,1606.36l-12.26,78.08q-1.56,8.07-7,12.53t-14,4.46a12.28,12.28,0,0,1-11.14-6.11q-3.76-6.09-3.77-16.52l19.34-118.44q1.72-9.85,7.08-14.57a24.14,24.14,0,0,1,16.06-5.93,28.18,28.18,0,0,1,14.79,3.86,19.34,19.34,0,0,1,8.75,11.45l26.43,80.9,24.29-77.56a29.06,29.06,0,0,1,8.92-13.33,21.59,21.59,0,0,1,14.39-5.32,26.6,26.6,0,0,1,15.89,5.09,19.92,19.92,0,0,1,8.4,13.56l21,119.77q0,23.15-14.62,23.15-12.61,0-17.21-6.39-3.41-4.66-4.72-14.63l-12.26-74.05-22.17,73.82a86.29,86.29,0,0,1-4.2,11.86,16.81,16.81,0,0,1-5.93,6.91q-4,2.71-10.87,2.71-8.24,0-12.9-4.32t-7.37-12.9Z"/><path class="cls-2" d="M1039.09,1681.62V1559.67a21.51,21.51,0,0,1,4.83-14.26q4.85-5.78,13.31-5.78t13.18,5.78a21.63,21.63,0,0,1,4.78,14.26v121.95a21.68,21.68,0,0,1-4.75,14.28q-4.76,5.76-13.21,5.76t-13.25-5.79A21.33,21.33,0,0,1,1039.09,1681.62Z"/><path class="cls-2" d="M1168.76,1574.29v107.33q0,8.58-4.81,14.31t-13.33,5.73q-8.36,0-13.27-5.79a21.25,21.25,0,0,1-4.92-14.25V1574.29H1111a19.4,19.4,0,0,1-12.79-4.29q-5.17-4.29-5.18-11.72t5.15-11.92A19.16,19.16,0,0,1,1111,1542h78.54a19.13,19.13,0,0,1,12.81,4.32q5.09,4.32,5.09,12a14.41,14.41,0,0,1-5.18,11.66,19.12,19.12,0,0,1-12.72,4.35Z"/><path class="cls-2" d="M1307.89,1669.36h-60.32l-3.8,13.64q-4.95,18.66-16.06,18.66a24.9,24.9,0,0,1-13.52-3.72,14.53,14.53,0,0,1-7-10.68q0-7.37,1.44-11.34l42.42-116.72a32.27,32.27,0,0,1,10.33-14.68,26.77,26.77,0,0,1,32.64-.06,31.83,31.83,0,0,1,10.33,14.74l42.42,116.72a35.69,35.69,0,0,1,1.44,11.34,13.93,13.93,0,0,1-6.77,10.66,25.38,25.38,0,0,1-13.78,3.74q-5.13,0-9.15-4.49a25.88,25.88,0,0,1-5.7-10.37Zm-10.82-32.31L1278,1577.11l-19.11,59.94Z"/><path class="cls-2" d="M1424.36,1574.29v107.33q0,8.58-4.81,14.31t-13.33,5.73q-8.35,0-13.27-5.79a21.25,21.25,0,0,1-4.92-14.25V1574.29h-21.42a19.4,19.4,0,0,1-12.79-4.29q-5.17-4.29-5.18-11.72t5.15-11.92a19.16,19.16,0,0,1,12.82-4.37h78.53a19.14,19.14,0,0,1,12.82,4.32q5.08,4.32,5.09,12a14.44,14.44,0,0,1-5.18,11.66,19.13,19.13,0,0,1-12.73,4.35Z"/><path class="cls-2" d="M1517.29,1574.29v29.94H1551a19.29,19.29,0,0,1,12.78,4.32q5.17,4.32,5.18,12a14.36,14.36,0,0,1-5.24,11.66,19.24,19.24,0,0,1-12.72,4.34h-33.69V1667h37.26q7.83,0,12.87,4.27t5,12a14.57,14.57,0,0,1-5.13,11.72,19.08,19.08,0,0,1-12.78,4.35h-51.42q-10.43,0-16.18-5.76t-5.76-16.18V1563.93q0-10.26,5.79-16.1t16.15-5.84h51.42q7.83,0,12.87,4.32t5,12a14.49,14.49,0,0,1-5.13,11.66,19.08,19.08,0,0,1-12.78,4.35Z"/><path class="cls-2" d="M673.34,2232.43v46.24a21.68,21.68,0,0,1-4.75,14.28q-4.76,5.76-13.22,5.76t-13.24-5.79a21.33,21.33,0,0,1-4.89-14.25V2161q0-10.26,5.78-16t16.15-5.73h36.34q24.06,0,38.92,12.26a44.44,44.44,0,0,1,12,15.66,45.37,45.37,0,0,1,4.26,19.24q0,21.3-12.27,33.28-8.05,7.71-24.75,11.57L744.34,2265q7,7.55,8.23,12.72a29.45,29.45,0,0,1,.46,4,17.75,17.75,0,0,1-4.43,11.75q-4.44,5.24-10.43,5.24-12.25,0-18.13-7.77Zm0-25.22h22.4a20.35,20.35,0,0,0,14-4.95,16.53,16.53,0,0,0,5.62-13,16.86,16.86,0,0,0-6.14-13.27,21,21,0,0,0-14.19-5.33H673.34Z"/><path class="cls-2" d="M814.64,2171.34v29.94h33.69a19.31,19.31,0,0,1,12.78,4.32q5.17,4.32,5.18,12a14.39,14.39,0,0,1-5.24,11.66,19.24,19.24,0,0,1-12.72,4.34H814.64V2264H851.9q7.83,0,12.87,4.27t5,12a14.59,14.59,0,0,1-5.12,11.72,19.08,19.08,0,0,1-12.78,4.35H800.48q-10.43,0-16.18-5.76t-5.76-16.18V2161q0-10.26,5.79-16.1t16.15-5.84H851.9q7.83,0,12.87,4.32t5,12a14.51,14.51,0,0,1-5.12,11.66,19.08,19.08,0,0,1-12.78,4.35Z"/><path class="cls-2" d="M890.53,2185.51a45.52,45.52,0,0,1,8-26.61,51.57,51.57,0,0,1,21.13-17.56,65.94,65.94,0,0,1,28-6.1,101.33,101.33,0,0,1,19,1.93,47.63,47.63,0,0,1,17.59,6.88q7.49,4.95,7.49,13.36a18.11,18.11,0,0,1-4.67,12.55,15.27,15.27,0,0,1-11.86,5.18,17.54,17.54,0,0,1-5.41-.75L963.2,2172a48.76,48.76,0,0,0-16.3-3.05,23.2,23.2,0,0,0-12.32,3.4,10.63,10.63,0,0,0-5.58,9.56q0,9.66,14.62,13.47l9.68,2.59q22.8,6.16,36.16,16.67t13.35,30.49q0,24.42-13.41,38.46a47,47,0,0,1-20.07,12.73,79.34,79.34,0,0,1-25.25,4q-24.06,0-41.28-8.29a25.55,25.55,0,0,1-9.73-7.83,18.43,18.43,0,0,1-3.69-11.29,16.08,16.08,0,0,1,4.67-11.23,14.41,14.41,0,0,1,10.88-5,23.41,23.41,0,0,1,9.21,1.67l12.49,4.67a48.28,48.28,0,0,0,17.68,3.57,23,23,0,0,0,13.76-4.35,13.93,13.93,0,0,0,6-11.95q0-7.71-5.87-11.52a43.37,43.37,0,0,0-9.45-4.57q-4.6-1.53-15.77-4.87a127.23,127.23,0,0,1-23.21-8.81,36.1,36.1,0,0,1-14-13Q890.54,2199.1,890.53,2185.51Z"/><path class="cls-2" d="M1063.45,2171.34v29.94h33.68a19.27,19.27,0,0,1,12.78,4.32q5.19,4.32,5.19,12a14.39,14.39,0,0,1-5.24,11.66,19.29,19.29,0,0,1-12.73,4.34h-33.68V2264h37.25q7.83,0,12.87,4.27t5,12a14.57,14.57,0,0,1-5.13,11.72,19.06,19.06,0,0,1-12.78,4.35h-51.42q-10.42,0-16.18-5.76t-5.76-16.18V2161q0-10.26,5.79-16.1t16.15-5.84h51.42q7.83,0,12.87,4.32t5,12a14.49,14.49,0,0,1-5.13,11.66,19.06,19.06,0,0,1-12.78,4.35Z"/><path class="cls-2" d="M1234.42,2266.41H1174.1l-3.8,13.64q-5,18.66-16.06,18.66a24.9,24.9,0,0,1-13.52-3.72,14.53,14.53,0,0,1-7-10.68q0-7.36,1.44-11.34l42.42-116.72a32.27,32.27,0,0,1,10.33-14.68,26.77,26.77,0,0,1,32.64-.06,31.83,31.83,0,0,1,10.33,14.74L1273.33,2273a35.73,35.73,0,0,1,1.44,11.34A14,14,0,0,1,1268,2295a25.38,25.38,0,0,1-13.78,3.74q-5.13,0-9.15-4.49a25.88,25.88,0,0,1-5.7-10.37Zm-10.82-32.31-19.11-59.94-19.11,59.94Z"/><path class="cls-2" d="M1329.47,2232.43v46.24a21.74,21.74,0,0,1-4.75,14.28q-4.76,5.76-13.22,5.76t-13.24-5.79a21.34,21.34,0,0,1-4.9-14.25V2161q0-10.26,5.79-16t16.15-5.73h36.33q24.07,0,38.93,12.26a44.56,44.56,0,0,1,12,15.66,45.37,45.37,0,0,1,4.26,19.24q0,21.3-12.27,33.28-8.05,7.71-24.76,11.57l30.69,33.69q7,7.55,8.24,12.72a31.2,31.2,0,0,1,.46,4,17.71,17.71,0,0,1-4.44,11.75q-4.42,5.24-10.42,5.24-12.25,0-18.14-7.77Zm0-25.22h22.4a20.35,20.35,0,0,0,14-4.95,16.52,16.52,0,0,0,5.61-13,16.85,16.85,0,0,0-6.13-13.27,21,21,0,0,0-14.19-5.33h-21.65Z"/><path class="cls-2" d="M1428.74,2213.09a83.58,83.58,0,0,1,5.64-30.87,73,73,0,0,1,16.13-24.93,72.21,72.21,0,0,1,24.83-16.32,83.39,83.39,0,0,1,31.22-5.73,96.8,96.8,0,0,1,20.11,2.33,52.38,52.38,0,0,1,18.86,7.8q8,5.48,8,14.17a19.7,19.7,0,0,1-3.63,12.15c-2.41,3.22-5.91,4.83-10.47,4.83q-4.22,0-13.48-3.51a49.57,49.57,0,0,0-18.37-4q-13.59,0-22.6,6.42a38.21,38.21,0,0,0-13.38,17.3,64.93,64.93,0,0,0-4.38,24.42q0,27.06,13.47,39.61,10.61,9.92,26.66,9.91,8.82,0,14.34-2.37l10.65-4.95a20.37,20.37,0,0,1,7.09-1.67q7.24,0,11.4,5.07a18.26,18.26,0,0,1,4.14,11.92q0,10.18-11.12,16.76-14.91,9-38.42,9a80,80,0,0,1-28.52-5.21,71,71,0,0,1-24.13-15.12Q1428.73,2257.25,1428.74,2213.09Z"/><path class="cls-2" d="M1679.44,2232h-66.91v46.7a21.68,21.68,0,0,1-4.75,14.28q-4.74,5.76-13.21,5.76t-13.25-5.79a21.33,21.33,0,0,1-4.89-14.25v-122a21.46,21.46,0,0,1,4.84-14.26q4.83-5.77,13.3-5.78t13.18,5.78a21.63,21.63,0,0,1,4.78,14.26v43h66.91v-43a21.55,21.55,0,0,1,4.82-14.26q4.82-5.77,13.12-5.78t13.26,5.76a21.22,21.22,0,0,1,4.9,14.28v122q0,8.58-4.81,14.31t-13.35,5.73q-8.37,0-13.15-5.79a21.63,21.63,0,0,1-4.79-14.25Z"/><path class="cls-2" d="M424.93,3076.18v-113q0-10.26,5.78-16.1t16.15-5.84h34q30.63,0,50.21,14.39a65.11,65.11,0,0,1,21.68,27.87,93,93,0,0,1,7.34,36.51q0,22.46-8.87,40.36a66.39,66.39,0,0,1-25.68,28q-16.82,10.14-39.5,10.14l-39.62-.46q-10.06,0-15.77-5.85T424.93,3076.18Zm36.1-9h17.91q20.15,0,30.17-10.6,12.5-13.12,12.49-36.56,0-25-14.39-37.49-10.77-9.68-32.3-9.67H461Z"/><path class="cls-2" d="M618.34,2973.57v29.94H652a19.32,19.32,0,0,1,12.79,4.32q5.18,4.32,5.18,12a14.39,14.39,0,0,1-5.24,11.66,19.27,19.27,0,0,1-12.73,4.34H618.34v30.46h37.25q7.83,0,12.87,4.27t5,12a14.59,14.59,0,0,1-5.12,11.72,19.09,19.09,0,0,1-12.79,4.35H604.17q-10.41,0-16.18-5.76t-5.75-16.18V2963.21q0-10.26,5.78-16.1t16.15-5.84h51.42q7.83,0,12.87,4.32t5,12a14.51,14.51,0,0,1-5.12,11.66,19.09,19.09,0,0,1-12.79,4.35Z"/><path class="cls-2" d="M757.68,3038.18l32.08-85.57a24.48,24.48,0,0,1,6.5-9.7,13.9,13.9,0,0,1,9.56-4,24.53,24.53,0,0,1,9.44,1.87,18.49,18.49,0,0,1,7.46,5.44,12.65,12.65,0,0,1,2.91,8.23,34.89,34.89,0,0,1-1.9,11.35L775.65,3087q-5.48,14.63-17.22,14.63a18.52,18.52,0,0,1-10.82-3.28,18.89,18.89,0,0,1-6.91-9L691.64,2965.8a39.36,39.36,0,0,1-1.84-11.35,13.15,13.15,0,0,1,6-11.31,23.42,23.42,0,0,1,13.76-4.23,13.85,13.85,0,0,1,9.56,4.09,24.1,24.1,0,0,1,6.45,9.61Z"/><path class="cls-2" d="M882,2973.57v29.94h33.68a19.32,19.32,0,0,1,12.79,4.32q5.17,4.32,5.18,12a14.39,14.39,0,0,1-5.24,11.66,19.27,19.27,0,0,1-12.73,4.34H882v30.46h37.25q7.83,0,12.87,4.27t5,12a14.59,14.59,0,0,1-5.12,11.72,19.09,19.09,0,0,1-12.79,4.35H867.83q-10.41,0-16.18-5.76t-5.75-16.18V2963.21q0-10.26,5.78-16.1t16.15-5.84h51.42q7.83,0,12.87,4.32t5,12a14.51,14.51,0,0,1-5.12,11.66,19.09,19.09,0,0,1-12.79,4.35Z"/><path class="cls-2" d="M997.79,3066.27h37.26q7.83,0,12.87,4.27t5,12a14.57,14.57,0,0,1-5.13,11.72,19.08,19.08,0,0,1-12.78,4.35H984.32q-10.59,0-16.61-6t-6-16.67v-117a21.45,21.45,0,0,1,4.84-14.25q4.83-5.78,13.3-5.78t13.18,5.78a21.62,21.62,0,0,1,4.78,14.25Z"/><path class="cls-2" d="M1050.13,3018.89a92.38,92.38,0,0,1,6.42-34.38,72.43,72.43,0,0,1,19.32-27.7q21.42-19.33,51.88-19.34a80.32,80.32,0,0,1,31.87,6.13,71.72,71.72,0,0,1,24.68,17.24,76.67,76.67,0,0,1,15.77,26,92.09,92.09,0,0,1,5.47,32.08,101.61,101.61,0,0,1-6.36,36,72.35,72.35,0,0,1-19.55,28.79,69.2,69.2,0,0,1-23.63,14.17,84.84,84.84,0,0,1-58.94-1.16,70.62,70.62,0,0,1-25.45-17.27Q1050.13,3056.78,1050.13,3018.89Zm38.47.23a73.16,73.16,0,0,0,4.17,24.58,43.21,43.21,0,0,0,13,19.2q8.87,7.41,22.15,7.41,13.53,0,22.3-7.27a41.52,41.52,0,0,0,12.8-18.88,75.78,75.78,0,0,0,4-25,68.37,68.37,0,0,0-4.26-24.22,40.32,40.32,0,0,0-13.2-18.24q-9-6.88-22.13-6.89a34.35,34.35,0,0,0-14.81,3.4,37.77,37.77,0,0,0-12.29,9.11Q1088.6,2995.66,1088.6,3019.12Z"/><path class="cls-2" d="M1264.51,3046.93v34a21.74,21.74,0,0,1-4.75,14.28q-4.76,5.76-13.16,5.76t-13.27-5.79a21.21,21.21,0,0,1-4.93-14.25V2963.21q0-10.26,5.79-16.1t16.15-5.84h36.79q26.61,0,40.08,13.18a52.51,52.51,0,0,1,8.75,11.06,54.73,54.73,0,0,1,5.79,13.36,51.54,51.54,0,0,1,2,14.05q0,22.92-12,37.25-13.76,16.76-39.84,16.76Zm0-31.38h18.36q11.64,0,18-6.34,5.87-5.92,5.87-16.06-.51-9.33-6.56-14.8t-15.38-5.47h-20.26Z"/><path class="cls-2" d="M1407,3005.64l-12.26,78.08q-1.54,8.07-7,12.53t-14,4.46a12.28,12.28,0,0,1-11.14-6.11q-3.78-6.09-3.77-16.52l19.34-118.44q1.72-9.85,7.08-14.57a24.16,24.16,0,0,1,16.06-5.93,28.15,28.15,0,0,1,14.79,3.86,19.34,19.34,0,0,1,8.75,11.45l26.42,80.9,24.3-77.56a29.13,29.13,0,0,1,8.92-13.33,21.59,21.59,0,0,1,14.39-5.32,26.6,26.6,0,0,1,15.89,5.09,19.92,19.92,0,0,1,8.4,13.56l21,119.77q0,23.14-14.62,23.15-12.6,0-17.21-6.39-3.4-4.67-4.72-14.63l-12.26-74.05-22.16,73.82a87.46,87.46,0,0,1-4.21,11.86,16.85,16.85,0,0,1-5.92,6.91q-4,2.71-10.88,2.71-8.24,0-12.9-4.32t-7.37-12.9Z"/><path class="cls-2" d="M1600.14,2973.57v29.94h33.69a19.31,19.31,0,0,1,12.78,4.32q5.17,4.32,5.18,12a14.39,14.39,0,0,1-5.24,11.66,19.24,19.24,0,0,1-12.72,4.34h-33.69v30.46h37.26q7.83,0,12.87,4.27t5,12a14.59,14.59,0,0,1-5.12,11.72,19.08,19.08,0,0,1-12.78,4.35H1586q-10.43,0-16.18-5.76t-5.76-16.18V2963.21q0-10.26,5.79-16.1t16.15-5.84h51.42q7.83,0,12.87,4.32t5,12a14.51,14.51,0,0,1-5.12,11.66,19.08,19.08,0,0,1-12.78,4.35Z"/><path class="cls-2" d="M1715.94,3003.28v77.62a21.74,21.74,0,0,1-4.75,14.28q-4.76,5.76-13.22,5.76t-13.24-5.79a21.29,21.29,0,0,1-4.9-14.25V2957.56a18.86,18.86,0,0,1,5-13.3,16.58,16.58,0,0,1,12.73-5.35q8.92,0,15.09,8l69.55,87.52v-75.49a21.46,21.46,0,0,1,4.85-14.25q4.85-5.78,13.32-5.78,8.31,0,13.12,5.76a21.47,21.47,0,0,1,4.82,14.27v121.27q0,10.08-4.73,15.32-5.43,5.4-12.06,5.41-9.35,0-14.36-6.85Z"/><path class="cls-2" d="M1912.11,2973.57V3080.9q0,8.58-4.81,14.31t-13.33,5.73q-8.34,0-13.27-5.79a21.25,21.25,0,0,1-4.92-14.25V2973.57h-21.42a19.36,19.36,0,0,1-12.78-4.29q-5.19-4.29-5.19-11.72t5.16-11.92a19.12,19.12,0,0,1,12.81-4.37h78.54a19.13,19.13,0,0,1,12.81,4.32q5.1,4.32,5.1,12a14.41,14.41,0,0,1-5.19,11.66,19.1,19.1,0,0,1-12.72,4.35Z"/><path class="cls-2" d="M657.55,3590.82A83.39,83.39,0,0,1,663.2,3560,73.06,73.06,0,0,1,679.33,3535a72.12,72.12,0,0,1,24.83-16.32,83.39,83.39,0,0,1,31.22-5.73,96.79,96.79,0,0,1,20.1,2.33,52.43,52.43,0,0,1,18.87,7.8q8,5.47,8,14.17a19.7,19.7,0,0,1-3.63,12.15q-3.63,4.83-10.48,4.83-4.2,0-13.47-3.51a49.61,49.61,0,0,0-18.37-4q-13.59,0-22.6,6.42a38.23,38.23,0,0,0-13.39,17.3,64.93,64.93,0,0,0-4.38,24.42q0,27.06,13.48,39.61,10.59,9.91,26.66,9.91,8.8,0,14.34-2.36l10.65-5a20.37,20.37,0,0,1,7.08-1.67q7.26,0,11.4,5.07a18.27,18.27,0,0,1,4.15,11.92q0,10.2-11.12,16.76-14.92,9-38.42,9a80,80,0,0,1-28.52-5.21,70.92,70.92,0,0,1-24.14-15.12Q657.55,3635,657.55,3590.82Z"/><path class="cls-2" d="M841.58,3610.16v46.24a21.74,21.74,0,0,1-4.75,14.28q-4.76,5.76-13.22,5.76t-13.24-5.79a21.34,21.34,0,0,1-4.9-14.25V3538.71q0-10.26,5.79-16t16.15-5.73h36.34q24.06,0,38.92,12.26a44.5,44.5,0,0,1,12,15.67,45.29,45.29,0,0,1,4.26,19.23q0,21.3-12.27,33.28-8.05,7.71-24.76,11.57l30.69,33.69q7,7.55,8.24,12.72a29.62,29.62,0,0,1,.46,4,17.75,17.75,0,0,1-4.43,11.75q-4.44,5.24-10.43,5.24-12.25,0-18.13-7.77Zm0-25.22H864a20.35,20.35,0,0,0,14-5,16.52,16.52,0,0,0,5.61-13,16.85,16.85,0,0,0-6.13-13.27,21,21,0,0,0-14.19-5.33H841.58Z"/><path class="cls-2" d="M982.88,3549.07V3579h33.68a19.32,19.32,0,0,1,12.79,4.32q5.18,4.32,5.18,12a14.39,14.39,0,0,1-5.24,11.66,19.27,19.27,0,0,1-12.73,4.35H982.88v30.46h37.25q7.83,0,12.87,4.26t5,12a14.59,14.59,0,0,1-5.12,11.72,19.09,19.09,0,0,1-12.79,4.35H968.71q-10.41,0-16.17-5.76t-5.76-16.18V3538.71q0-10.26,5.78-16.1t16.15-5.84h51.42q7.83,0,12.87,4.32t5,12a14.51,14.51,0,0,1-5.12,11.66,19.09,19.09,0,0,1-12.79,4.35Z"/><path class="cls-2" d="M1153.85,3644.14h-60.32l-3.8,13.64q-4.95,18.66-16,18.66a25,25,0,0,1-13.53-3.71,14.58,14.58,0,0,1-7-10.69q0-7.36,1.43-11.34L1097,3534a32.2,32.2,0,0,1,10.34-14.69,26.76,26.76,0,0,1,32.63-.06,31.81,31.81,0,0,1,10.33,14.75l42.42,116.71a35.73,35.73,0,0,1,1.44,11.34,13.94,13.94,0,0,1-6.76,10.66,25.42,25.42,0,0,1-13.79,3.74q-5.12,0-9.15-4.49a25.88,25.88,0,0,1-5.7-10.37ZM1143,3611.83l-19.11-59.94-19.11,59.94Z"/><path class="cls-2" d="M1270.32,3549.07V3656.4q0,8.58-4.81,14.31t-13.33,5.73q-8.34,0-13.27-5.79a21.25,21.25,0,0,1-4.92-14.25V3549.07h-21.42a19.36,19.36,0,0,1-12.78-4.29q-5.19-4.29-5.19-11.72t5.16-11.92a19.12,19.12,0,0,1,12.81-4.37h78.54a19.13,19.13,0,0,1,12.81,4.32q5.1,4.32,5.1,12a14.41,14.41,0,0,1-5.19,11.66,19.1,19.1,0,0,1-12.72,4.35Z"/><path class="cls-2" d="M1327.15,3656.4v-122a21.51,21.51,0,0,1,4.84-14.26q4.83-5.78,13.3-5.78t13.19,5.78a21.69,21.69,0,0,1,4.78,14.26v122a21.74,21.74,0,0,1-4.75,14.28q-4.76,5.76-13.22,5.76t-13.24-5.79A21.29,21.29,0,0,1,1327.15,3656.4Z"/><path class="cls-2" d="M1385.14,3594.39a92.38,92.38,0,0,1,6.42-34.38,72.39,72.39,0,0,1,19.32-27.69q21.4-19.35,51.87-19.35a80.4,80.4,0,0,1,31.88,6.13,71.57,71.57,0,0,1,24.67,17.25,76.71,76.71,0,0,1,15.78,26,92.32,92.32,0,0,1,5.47,32.08,101.61,101.61,0,0,1-6.37,36,72.35,72.35,0,0,1-19.55,28.79,69.1,69.1,0,0,1-23.63,14.17,84.92,84.92,0,0,1-58.94-1.15,70.86,70.86,0,0,1-25.45-17.28Q1385.15,3632.28,1385.14,3594.39Zm38.46.23a73.16,73.16,0,0,0,4.17,24.58,43.29,43.29,0,0,0,13,19.2q8.87,7.41,22.16,7.41,13.51,0,22.29-7.27a41.52,41.52,0,0,0,12.8-18.88,75.78,75.78,0,0,0,4-25,68.45,68.45,0,0,0-4.26-24.22,40.24,40.24,0,0,0-13.2-18.24q-9-6.88-22.12-6.89a34.5,34.5,0,0,0-14.82,3.4,37.88,37.88,0,0,0-12.29,9.11Q1423.6,3571.16,1423.6,3594.62Z"/><path class="cls-2" d="M1598.82,3578.78v77.62a21.74,21.74,0,0,1-4.75,14.28q-4.75,5.76-13.22,5.76t-13.24-5.79a21.34,21.34,0,0,1-4.9-14.25V3533.06a18.83,18.83,0,0,1,5-13.3,16.54,16.54,0,0,1,12.72-5.35q8.92,0,15.09,8l69.56,87.52v-75.48a21.46,21.46,0,0,1,4.84-14.26q4.84-5.78,13.32-5.78,8.31,0,13.12,5.76a21.5,21.5,0,0,1,4.82,14.28v121.26q0,10.08-4.73,15.32c-3.62,3.6-7.63,5.41-12.06,5.41q-9.33,0-14.36-6.85Z"/><rect class="cls-2" x="1161.85" y="1787.54" width="19" height="118.93"/><polygon class="cls-2" points="1123.03 1892.33 1171.35 1976 1219.66 1892.33 1123.03 1892.33"/><rect class="cls-2" x="1161.85" y="3184.07" width="19" height="118.93"/><polygon class="cls-2" points="1123.03 3288.86 1171.35 3372.53 1219.66 3288.86 1123.03 3288.86"/><rect class="cls-3" x="2365.39" y="3116.05" width="1572.58" height="337.11" rx="168.55"/><path class="cls-2" d="M3769.42,3462.65H2533.94c-98.18,0-178.05-79.87-178.05-178.05s79.87-178,178.05-178H3769.42c98.17,0,178,79.87,178,178S3867.59,3462.65,3769.42,3462.65Zm-1235.48-337.1c-87.7,0-159.05,71.35-159.05,159s71.35,159.05,159.05,159.05H3769.42c87.7,0,159-71.35,159-159.05s-71.35-159-159-159Z"/><path class="cls-2" d="M2487.17,3340.08v-122a21.45,21.45,0,0,1,4.84-14.25q4.83-5.79,13.3-5.79t13.19,5.79a21.68,21.68,0,0,1,4.78,14.25v122a21.69,21.69,0,0,1-4.76,14.28q-4.74,5.74-13.21,5.75t-13.24-5.78A21.29,21.29,0,0,1,2487.17,3340.08Z"/><path class="cls-2" d="M2588.34,3262.46v77.62a21.68,21.68,0,0,1-4.75,14.28q-4.76,5.74-13.21,5.75t-13.25-5.78a21.33,21.33,0,0,1-4.89-14.25V3216.74a18.84,18.84,0,0,1,5-13.3,16.55,16.55,0,0,1,12.73-5.36q8.92,0,15.08,8l69.56,87.52v-75.49a21.45,21.45,0,0,1,4.84-14.25q4.84-5.79,13.32-5.79,8.31,0,13.12,5.76a21.52,21.52,0,0,1,4.82,14.28v121.27q0,10.07-4.73,15.31-5.41,5.41-12,5.41-9.35,0-14.36-6.85Z"/><path class="cls-2" d="M2756,3262.46v77.62a21.68,21.68,0,0,1-4.75,14.28q-4.74,5.74-13.21,5.75t-13.24-5.78a21.29,21.29,0,0,1-4.9-14.25V3216.74a18.84,18.84,0,0,1,5-13.3,16.57,16.57,0,0,1,12.73-5.36q8.92,0,15.08,8l69.56,87.52v-75.49a21.46,21.46,0,0,1,4.85-14.25q4.85-5.79,13.32-5.79,8.31,0,13.12,5.76a21.51,21.51,0,0,1,4.81,14.28v121.27q0,10.07-4.72,15.31-5.43,5.41-12.06,5.41-9.35,0-14.36-6.85Z"/><path class="cls-2" d="M2880.5,3278.06a92.33,92.33,0,0,1,6.42-34.37,72.43,72.43,0,0,1,19.32-27.7q21.42-19.35,51.88-19.35a80.35,80.35,0,0,1,31.87,6.14,71.45,71.45,0,0,1,24.68,17.24,76.67,76.67,0,0,1,15.77,26,92,92,0,0,1,5.47,32.07,101.66,101.66,0,0,1-6.36,36.05A72.42,72.42,0,0,1,3010,3342.9a69.12,69.12,0,0,1-23.64,14.16,84.89,84.89,0,0,1-58.93-1.15,70.62,70.62,0,0,1-25.45-17.27Q2880.5,3315.95,2880.5,3278.06Zm38.47.23a73.21,73.21,0,0,0,4.17,24.59,43.12,43.12,0,0,0,13,19.19q8.86,7.41,22.15,7.41,13.53,0,22.3-7.26a41.58,41.58,0,0,0,12.8-18.88,75.8,75.8,0,0,0,4-25.05,68.35,68.35,0,0,0-4.26-24.21,40.32,40.32,0,0,0-13.2-18.24q-9-6.9-22.13-6.89a34.35,34.35,0,0,0-14.81,3.4,37.63,37.63,0,0,0-12.29,9.11Q2919,3254.83,2919,3278.29Z"/><path class="cls-2" d="M3110.65,3297.35l32.07-85.56a24.54,24.54,0,0,1,6.51-9.7,13.89,13.89,0,0,1,9.56-4,24.54,24.54,0,0,1,9.44,1.88,18.46,18.46,0,0,1,7.46,5.44,12.65,12.65,0,0,1,2.91,8.23,34.78,34.78,0,0,1-1.9,11.34l-48.08,121.21q-5.48,14.63-17.22,14.63a18.46,18.46,0,0,1-10.82-3.29,18.76,18.76,0,0,1-6.91-9L3044.61,3225a39.33,39.33,0,0,1-1.85-11.34,13.16,13.16,0,0,1,6-11.31,23.36,23.36,0,0,1,13.76-4.24,13.92,13.92,0,0,1,9.56,4.09,24.13,24.13,0,0,1,6.45,9.62Z"/><path class="cls-2" d="M3268.9,3327.81h-60.32l-3.8,13.65q-5,18.66-16.06,18.65a24.89,24.89,0,0,1-13.52-3.71,14.55,14.55,0,0,1-7-10.68c0-4.91.48-8.7,1.44-11.34l42.42-116.72a32.22,32.22,0,0,1,10.33-14.68,26.73,26.73,0,0,1,32.64-.06,31.83,31.83,0,0,1,10.33,14.74l42.42,116.72a35.69,35.69,0,0,1,1.44,11.34,13.9,13.9,0,0,1-6.77,10.65,25.3,25.3,0,0,1-13.78,3.74q-5.13,0-9.15-4.49a25.84,25.84,0,0,1-5.7-10.36Zm-10.82-32.3L3239,3235.57l-19.11,59.94Z"/><path class="cls-2" d="M3385.37,3232.75v107.33a21.53,21.53,0,0,1-4.81,14.31q-4.82,5.71-13.33,5.72-8.36,0-13.27-5.78a21.25,21.25,0,0,1-4.92-14.25V3232.75h-21.42a19.4,19.4,0,0,1-12.79-4.29q-5.17-4.29-5.18-11.72t5.15-11.92a19.12,19.12,0,0,1,12.82-4.38h78.53a19.14,19.14,0,0,1,12.82,4.32q5.09,4.32,5.09,12a14.45,14.45,0,0,1-5.18,11.66,19.14,19.14,0,0,1-12.73,4.35Z"/><path class="cls-2" d="M3442.2,3340.08v-122a21.45,21.45,0,0,1,4.84-14.25q4.83-5.79,13.3-5.79t13.18,5.79a21.62,21.62,0,0,1,4.78,14.25v122a21.68,21.68,0,0,1-4.75,14.28q-4.76,5.74-13.21,5.75t-13.25-5.78A21.33,21.33,0,0,1,3442.2,3340.08Z"/><path class="cls-2" d="M3500.18,3278.06a92.33,92.33,0,0,1,6.42-34.37,72.43,72.43,0,0,1,19.32-27.7q21.42-19.35,51.88-19.35a80.35,80.35,0,0,1,31.87,6.14,71.31,71.31,0,0,1,24.67,17.24,76.69,76.69,0,0,1,15.78,26,92,92,0,0,1,5.47,32.07,101.66,101.66,0,0,1-6.36,36.05,72.42,72.42,0,0,1-19.55,28.79,69.12,69.12,0,0,1-23.64,14.16,84.89,84.89,0,0,1-58.93-1.15,70.62,70.62,0,0,1-25.45-17.27Q3500.18,3315.95,3500.18,3278.06Zm38.47.23a73.21,73.21,0,0,0,4.17,24.59,43.12,43.12,0,0,0,13,19.19q8.87,7.41,22.15,7.41,13.53,0,22.3-7.26a41.58,41.58,0,0,0,12.8-18.88,75.8,75.8,0,0,0,4-25.05,68.35,68.35,0,0,0-4.26-24.21,40.32,40.32,0,0,0-13.2-18.24q-9-6.9-22.13-6.89a34.35,34.35,0,0,0-14.81,3.4,37.63,37.63,0,0,0-12.29,9.11Q3538.65,3254.83,3538.65,3278.29Z"/><path class="cls-2" d="M3713.86,3262.46v77.62a21.68,21.68,0,0,1-4.75,14.28q-4.74,5.74-13.21,5.75t-13.25-5.78a21.33,21.33,0,0,1-4.89-14.25V3216.74a18.84,18.84,0,0,1,4.95-13.3,16.57,16.57,0,0,1,12.73-5.36q8.92,0,15.08,8l69.56,87.52v-75.49a21.51,21.51,0,0,1,4.84-14.25q4.85-5.79,13.33-5.79,8.3,0,13.12,5.76a21.51,21.51,0,0,1,4.81,14.28v121.27q0,10.07-4.72,15.31-5.43,5.41-12.06,5.41-9.34,0-14.36-6.85Z"/><rect class="cls-4" x="2365.39" y="1746.12" width="1326.39" height="337.11" rx="168.55"/><path class="cls-2" d="M3523.23,2092.73H2533.94c-98.18,0-178.05-79.88-178.05-178s79.87-178.06,178.05-178.06h989.29c98.18,0,178.05,79.88,178.05,178.06S3621.41,2092.73,3523.23,2092.73Zm-989.29-337.11c-87.7,0-159.05,71.35-159.05,159.06s71.35,159,159.05,159h989.29c87.7,0,159.05-71.35,159.05-159s-71.35-159.06-159.05-159.06Z"/><path class="cls-2" d="M2509.77,1970.15v-122a21.45,21.45,0,0,1,4.84-14.25q4.83-5.79,13.3-5.79t13.18,5.79a21.62,21.62,0,0,1,4.78,14.25v122a21.64,21.64,0,0,1-4.75,14.28q-4.74,5.76-13.21,5.76t-13.25-5.78A21.34,21.34,0,0,1,2509.77,1970.15Z"/><path class="cls-2" d="M2616.85,1894.9,2604.59,1973q-1.55,8.05-7,12.52t-14,4.46a12.28,12.28,0,0,1-11.14-6.1q-3.77-6.1-3.77-16.53l19.34-118.44q1.72-9.84,7.08-14.57a24.23,24.23,0,0,1,16.06-5.93,28.28,28.28,0,0,1,14.8,3.86,19.4,19.4,0,0,1,8.75,11.46l26.42,80.9,24.29-77.56a29.08,29.08,0,0,1,8.92-13.33,21.6,21.6,0,0,1,14.39-5.33,26.54,26.54,0,0,1,15.89,5.1,19.87,19.87,0,0,1,8.4,13.56l21,119.76q0,23.16-14.62,23.15-12.6,0-17.21-6.39-3.39-4.66-4.72-14.62l-12.26-74-22.16,73.81a89.82,89.82,0,0,1-4.2,11.87,16.94,16.94,0,0,1-5.93,6.91q-4,2.7-10.88,2.7-8.23,0-12.89-4.32t-7.37-12.89Z"/><path class="cls-2" d="M2773.89,1970.15v-122a21.45,21.45,0,0,1,4.84-14.25q4.83-5.79,13.3-5.79t13.18,5.79a21.62,21.62,0,0,1,4.78,14.25v122a21.64,21.64,0,0,1-4.75,14.28q-4.74,5.76-13.21,5.76t-13.24-5.78A21.3,21.3,0,0,1,2773.89,1970.15Z"/><path class="cls-2" d="M2903.56,1862.82v107.33q0,8.58-4.8,14.31t-13.34,5.73q-8.34,0-13.27-5.78a21.26,21.26,0,0,1-4.92-14.26V1862.82h-21.42a19.3,19.3,0,0,1-12.78-4.29q-5.19-4.27-5.19-11.71t5.16-11.92a19.07,19.07,0,0,1,12.81-4.38h78.54a19.13,19.13,0,0,1,12.81,4.32q5.1,4.32,5.1,12a14.44,14.44,0,0,1-5.19,11.66,19.09,19.09,0,0,1-12.72,4.34Z"/><path class="cls-2" d="M3042.69,1957.89h-60.32l-3.8,13.65q-5,18.64-16.05,18.65a25,25,0,0,1-13.53-3.71,14.58,14.58,0,0,1-7-10.68q0-7.38,1.43-11.35l42.42-116.71a32.24,32.24,0,0,1,10.33-14.68,26.73,26.73,0,0,1,32.64-.06,31.78,31.78,0,0,1,10.33,14.74l42.42,116.71a35.8,35.8,0,0,1,1.44,11.35,13.94,13.94,0,0,1-6.76,10.65,25.42,25.42,0,0,1-13.79,3.74q-5.11,0-9.15-4.49a26,26,0,0,1-5.7-10.36Zm-10.82-32.3-19.11-59.94-19.11,59.94Z"/><path class="cls-2" d="M3159.16,1862.82v107.33q0,8.58-4.81,14.31t-13.33,5.73q-8.34,0-13.27-5.78a21.26,21.26,0,0,1-4.92-14.26V1862.82h-21.42a19.3,19.3,0,0,1-12.78-4.29q-5.19-4.27-5.19-11.71t5.16-11.92a19.07,19.07,0,0,1,12.81-4.38H3180a19.13,19.13,0,0,1,12.81,4.32q5.1,4.32,5.1,12a14.44,14.44,0,0,1-5.19,11.66,19.09,19.09,0,0,1-12.72,4.34Z"/><path class="cls-2" d="M3216,1970.15v-122a21.51,21.51,0,0,1,4.84-14.25q4.83-5.79,13.3-5.79t13.19,5.79a21.68,21.68,0,0,1,4.78,14.25v122a21.7,21.7,0,0,1-4.75,14.28q-4.76,5.76-13.22,5.76t-13.24-5.78A21.35,21.35,0,0,1,3216,1970.15Z"/><path class="cls-2" d="M3274,1908.14a92.38,92.38,0,0,1,6.42-34.38,72.55,72.55,0,0,1,19.31-27.69q21.43-19.35,51.88-19.35a80.58,80.58,0,0,1,31.88,6.13,71.57,71.57,0,0,1,24.67,17.25,76.75,76.75,0,0,1,15.78,26,92.23,92.23,0,0,1,5.47,32.07,101.67,101.67,0,0,1-6.37,36,72.42,72.42,0,0,1-19.55,28.79,69.14,69.14,0,0,1-23.63,14.16,84.92,84.92,0,0,1-58.94-1.15,70.74,70.74,0,0,1-25.45-17.28Q3274,1946,3274,1908.14Zm38.46.23a73.21,73.21,0,0,0,4.17,24.59,43.26,43.26,0,0,0,13,19.19q8.87,7.41,22.16,7.41,13.51,0,22.29-7.26a41.63,41.63,0,0,0,12.8-18.88,75.88,75.88,0,0,0,4-25.05,68.35,68.35,0,0,0-4.26-24.21,40.33,40.33,0,0,0-13.2-18.25q-9-6.89-22.12-6.89a34.37,34.37,0,0,0-14.82,3.41,37.56,37.56,0,0,0-12.28,9.1Q3312.44,1884.91,3312.44,1908.37Z"/><path class="cls-2" d="M3487.66,1892.54v77.61a21.7,21.7,0,0,1-4.75,14.28q-4.76,5.76-13.22,5.76t-13.24-5.78a21.35,21.35,0,0,1-4.9-14.26V1846.82a18.85,18.85,0,0,1,5-13.3,16.55,16.55,0,0,1,12.72-5.36q8.92,0,15.09,8l69.56,87.52V1848.2a21.45,21.45,0,0,1,4.84-14.25q4.84-5.79,13.32-5.79,8.31,0,13.12,5.76a21.52,21.52,0,0,1,4.82,14.28v121.26q0,10.08-4.73,15.32-5.43,5.42-12.05,5.41-9.35,0-14.36-6.85Z"/><rect class="cls-2" x="1161.85" y="2386.1" width="19" height="327.48"/><polygon class="cls-2" points="1123.03 2699.44 1171.35 2783.11 1219.66 2699.44 1123.03 2699.44"/><rect class="cls-1" x="471.11" y="704.11" width="1400.49" height="337.11" rx="168.55"/><path class="cls-2" d="M1703,1050.72H639.66c-98.18,0-178-79.88-178-178.06s79.87-178,178-178H1703c98.18,0,178,79.87,178,178S1801.22,1050.72,1703,1050.72ZM639.66,713.61c-87.7,0-159,71.35-159,159s71.35,159.06,159,159.06H1703c87.7,0,159-71.35,159-159.06s-71.35-159-159-159Z"/><path class="cls-2" d="M584.84,928.14V806.19a21.47,21.47,0,0,1,4.84-14.25q4.85-5.79,13.3-5.79t13.19,5.79A21.64,21.64,0,0,1,621,806.19V928.14a21.74,21.74,0,0,1-4.75,14.28q-4.76,5.76-13.22,5.76t-13.24-5.79A21.27,21.27,0,0,1,584.84,928.14Z"/><path class="cls-2" d="M686,850.52v77.62a21.68,21.68,0,0,1-4.75,14.28q-4.74,5.76-13.21,5.76t-13.25-5.79a21.31,21.31,0,0,1-4.89-14.25V804.8a18.86,18.86,0,0,1,5-13.3,16.55,16.55,0,0,1,12.73-5.35q8.92,0,15.08,8l69.56,87.52V806.19a21.42,21.42,0,0,1,4.84-14.25q4.84-5.79,13.33-5.79,8.29,0,13.12,5.76a21.51,21.51,0,0,1,4.81,14.28V927.45q0,10.08-4.73,15.32-5.42,5.4-12.05,5.41-9.34,0-14.36-6.85Z"/><path class="cls-2" d="M877.24,885.42l32.07-85.57a24.61,24.61,0,0,1,6.51-9.7,13.86,13.86,0,0,1,9.56-4,24.53,24.53,0,0,1,9.44,1.87,18.45,18.45,0,0,1,7.45,5.44,12.67,12.67,0,0,1,2.91,8.24,34.61,34.61,0,0,1-1.9,11.34L895.2,934.25q-5.48,14.63-17.21,14.62a18.5,18.5,0,0,1-10.83-3.28,18.87,18.87,0,0,1-6.91-9L811.19,813a39.35,39.35,0,0,1-1.84-11.34,13.16,13.16,0,0,1,6-11.32,23.4,23.4,0,0,1,13.76-4.23,13.89,13.89,0,0,1,9.56,4.09,24.31,24.31,0,0,1,6.45,9.61Z"/><path class="cls-2" d="M1001.55,820.81v29.94h33.69a19.29,19.29,0,0,1,12.78,4.32q5.18,4.32,5.18,12a14.36,14.36,0,0,1-5.24,11.66,19.25,19.25,0,0,1-12.72,4.35h-33.69v30.46h37.26q7.83,0,12.87,4.26t5,12a14.56,14.56,0,0,1-5.12,11.72,19.08,19.08,0,0,1-12.78,4.35H987.39q-10.42,0-16.18-5.76t-5.76-16.18V810.45q0-10.25,5.79-16.1t16.15-5.84h51.42q7.83,0,12.87,4.32t5,12a14.48,14.48,0,0,1-5.12,11.66,19.08,19.08,0,0,1-12.78,4.35Z"/><path class="cls-2" d="M1117.35,850.52v77.62a21.74,21.74,0,0,1-4.75,14.28q-4.75,5.76-13.22,5.76t-13.24-5.79a21.32,21.32,0,0,1-4.9-14.25V804.8a18.83,18.83,0,0,1,5-13.3,16.54,16.54,0,0,1,12.72-5.35q8.92,0,15.09,8l69.55,87.52V806.19a21.42,21.42,0,0,1,4.85-14.25q4.85-5.79,13.32-5.79,8.31,0,13.12,5.76a21.52,21.52,0,0,1,4.82,14.28V927.45q0,10.08-4.73,15.32c-3.62,3.6-7.63,5.41-12.06,5.41q-9.33,0-14.35-6.85Z"/><path class="cls-2" d="M1313.52,820.81V928.14q0,8.58-4.8,14.31t-13.33,5.73q-8.36,0-13.28-5.79a21.23,21.23,0,0,1-4.92-14.25V820.81h-21.42a19.36,19.36,0,0,1-12.78-4.29q-5.19-4.29-5.19-11.72c0-5,1.72-9,5.16-11.91a19.07,19.07,0,0,1,12.81-4.38h78.54a19.13,19.13,0,0,1,12.81,4.32q5.1,4.32,5.1,12a14.44,14.44,0,0,1-5.18,11.66,19.14,19.14,0,0,1-12.73,4.35Z"/><path class="cls-2" d="M1370.36,928.14V806.19a21.46,21.46,0,0,1,4.83-14.25q4.85-5.79,13.3-5.79t13.19,5.79a21.59,21.59,0,0,1,4.78,14.25V928.14a21.68,21.68,0,0,1-4.75,14.28q-4.76,5.76-13.22,5.76t-13.24-5.79A21.31,21.31,0,0,1,1370.36,928.14Z"/><path class="cls-2" d="M1428.34,866.13a92.38,92.38,0,0,1,6.42-34.38,72.39,72.39,0,0,1,19.32-27.69q21.42-19.35,51.88-19.35a80.35,80.35,0,0,1,31.87,6.13,71.47,71.47,0,0,1,24.67,17.25,76.75,76.75,0,0,1,15.78,26,92.23,92.23,0,0,1,5.47,32.07,101.61,101.61,0,0,1-6.36,36A72.38,72.38,0,0,1,1557.84,931a69.14,69.14,0,0,1-23.64,14.17,84.89,84.89,0,0,1-58.93-1.15,70.69,70.69,0,0,1-25.45-17.28Q1428.34,904,1428.34,866.13Zm38.46.23a73.16,73.16,0,0,0,4.17,24.58,43.23,43.23,0,0,0,13,19.2q8.85,7.41,22.15,7.41,13.52,0,22.3-7.27a41.68,41.68,0,0,0,12.8-18.88,76,76,0,0,0,4-25,68.35,68.35,0,0,0-4.26-24.21,40.29,40.29,0,0,0-13.21-18.25q-8.94-6.89-22.12-6.89a34.54,34.54,0,0,0-14.82,3.4,37.73,37.73,0,0,0-12.28,9.11Q1466.8,842.9,1466.8,866.36Z"/><path class="cls-2" d="M1642,850.52v77.62a21.68,21.68,0,0,1-4.75,14.28q-4.76,5.76-13.22,5.76t-13.24-5.79a21.31,21.31,0,0,1-4.89-14.25V804.8a18.86,18.86,0,0,1,4.95-13.3,16.54,16.54,0,0,1,12.72-5.35q8.92,0,15.09,8l69.56,87.52V806.19a21.42,21.42,0,0,1,4.84-14.25q4.85-5.79,13.32-5.79,8.31,0,13.12,5.76a21.52,21.52,0,0,1,4.82,14.28V927.45q0,10.08-4.73,15.32-5.41,5.4-12,5.41-9.35,0-14.36-6.85Z"/><path class="cls-2" d="M2790.36,273.06v22.48a14.34,14.34,0,0,1-3.15,9.45,10.65,10.65,0,0,1-8.7,3.81,10.92,10.92,0,0,1-8.79-3.83,14,14,0,0,1-3.26-9.43v-77.9q0-6.78,3.83-10.65t10.69-3.87h24.36q17.6,0,26.52,8.73a34.13,34.13,0,0,1,5.79,7.32,35.87,35.87,0,0,1,3.83,8.84,33.92,33.92,0,0,1,1.32,9.3q0,15.16-8,24.66-9.1,11.08-26.37,11.09Zm0-20.77h12.16q7.7,0,11.89-4.2,3.89-3.92,3.88-10.63a13.6,13.6,0,0,0-4.34-9.79,14.57,14.57,0,0,0-10.18-3.62h-13.41Z"/><path class="cls-2" d="M2880.76,224.5v19.82h22.29a12.76,12.76,0,0,1,8.46,2.86,9.74,9.74,0,0,1,3.43,7.93,9.52,9.52,0,0,1-3.47,7.71,12.74,12.74,0,0,1-8.42,2.88h-22.29v20.16h24.65a12.73,12.73,0,0,1,8.52,2.82,9.82,9.82,0,0,1,3.33,7.93,9.64,9.64,0,0,1-3.39,7.75,12.61,12.61,0,0,1-8.46,2.88h-34q-6.9,0-10.71-3.81t-3.81-10.71V217.64q0-6.78,3.83-10.65t10.69-3.87h34a12.65,12.65,0,0,1,8.52,2.86,9.9,9.9,0,0,1,3.33,7.93,9.61,9.61,0,0,1-3.39,7.72,12.66,12.66,0,0,1-8.46,2.87Z"/><path class="cls-2" d="M2957.4,264.94v30.6a14.34,14.34,0,0,1-3.15,9.45,10.7,10.7,0,0,1-8.74,3.81,10.87,10.87,0,0,1-8.77-3.83,14.08,14.08,0,0,1-3.24-9.43v-77.9q0-6.78,3.83-10.57t10.69-3.79h24.05q15.93,0,25.76,8.11a29.52,29.52,0,0,1,7.93,10.37,30,30,0,0,1,2.82,12.73q0,14.1-8.12,22-5.34,5.1-16.39,7.66l20.31,22.29q4.62,5,5.46,8.42a20.16,20.16,0,0,1,.3,2.67,11.74,11.74,0,0,1-2.93,7.77,8.79,8.79,0,0,1-6.9,3.47q-8.11,0-12-5.14Zm0-16.69h14.82a13.5,13.5,0,0,0,9.24-3.28,10.94,10.94,0,0,0,3.72-8.61,11.19,11.19,0,0,0-4.06-8.79,13.91,13.91,0,0,0-9.4-3.52H2957.4Z"/><path class="cls-2" d="M3024.51,233.88a30.13,30.13,0,0,1,5.26-17.61,34,34,0,0,1,14-11.62,43.72,43.72,0,0,1,18.56-4,67.43,67.43,0,0,1,12.6,1.27,31.63,31.63,0,0,1,11.64,4.56,10.11,10.11,0,0,1,4.95,8.84,12,12,0,0,1-3.08,8.31,10.1,10.1,0,0,1-7.85,3.43,11.65,11.65,0,0,1-3.59-.5L3072.6,225a32.08,32.08,0,0,0-10.78-2,15.4,15.4,0,0,0-8.16,2.25,7.05,7.05,0,0,0-3.7,6.33q0,6.39,9.68,8.91l6.41,1.72q15.09,4.08,23.93,11t8.84,20.18q0,16.15-8.88,25.46a31.13,31.13,0,0,1-13.28,8.42,52.31,52.31,0,0,1-16.71,2.67q-15.93,0-27.33-5.49a17.05,17.05,0,0,1-6.44-5.18,12.25,12.25,0,0,1-2.44-7.47,10.62,10.62,0,0,1,3.09-7.43A9.57,9.57,0,0,1,3034,281a15.41,15.41,0,0,1,6.1,1.11l8.27,3.08a31.89,31.89,0,0,0,11.7,2.37,15.2,15.2,0,0,0,9.11-2.88,9.22,9.22,0,0,0,4-7.91,8.45,8.45,0,0,0-3.89-7.62,28.14,28.14,0,0,0-6.25-3q-3-1-10.44-3.22a84.69,84.69,0,0,1-15.36-5.83,23.91,23.91,0,0,1-9.28-8.63Q3024.51,242.86,3024.51,233.88Z"/><path class="cls-2" d="M3110.37,254.5a61,61,0,0,1,4.25-22.76,48,48,0,0,1,12.78-18.33q14.17-12.79,34.34-12.8a53.17,53.17,0,0,1,21.1,4.06,47.39,47.39,0,0,1,16.33,11.41,50.92,50.92,0,0,1,10.44,17.19,61,61,0,0,1,3.62,21.23,67.4,67.4,0,0,1-4.21,23.85,48,48,0,0,1-12.94,19.06,45.78,45.78,0,0,1-15.65,9.37,56.09,56.09,0,0,1-39-.76,46.77,46.77,0,0,1-16.85-11.43Q3110.38,279.58,3110.37,254.5Zm25.46.15a48.44,48.44,0,0,0,2.76,16.27,28.62,28.62,0,0,0,8.62,12.71q5.86,4.89,14.66,4.9,9,0,14.76-4.81a27.48,27.48,0,0,0,8.47-12.49,50.25,50.25,0,0,0,2.67-16.58,45.28,45.28,0,0,0-2.82-16,26.66,26.66,0,0,0-8.74-12.07q-5.92-4.56-14.64-4.56a22.82,22.82,0,0,0-9.81,2.25,25,25,0,0,0-8.13,6Q3135.83,239.12,3135.83,254.65Z"/><path class="cls-2" d="M3251.8,244.17v51.37a14.34,14.34,0,0,1-3.15,9.45,10.72,10.72,0,0,1-8.75,3.81,10.86,10.86,0,0,1-8.76-3.83,14.08,14.08,0,0,1-3.24-9.43V213.91a12.43,12.43,0,0,1,3.28-8.8,10.92,10.92,0,0,1,8.42-3.55q5.91,0,10,5.3l46,57.93v-50a14.18,14.18,0,0,1,3.21-9.43,10.87,10.87,0,0,1,8.81-3.83,10.74,10.74,0,0,1,8.69,3.81,14.26,14.26,0,0,1,3.19,9.45v80.26q0,6.68-3.13,10.14a11.49,11.49,0,0,1-17.49-1Z"/><path class="cls-2" d="M3399.29,287.42h-39.92l-2.52,9q-3.27,12.35-10.62,12.34a16.52,16.52,0,0,1-9-2.46,9.64,9.64,0,0,1-4.61-7.06,22.83,22.83,0,0,1,1-7.51l28.07-77.25a21.35,21.35,0,0,1,6.84-9.72,17.69,17.69,0,0,1,21.6,0,21.05,21.05,0,0,1,6.84,9.76L3425,291.77a23.49,23.49,0,0,1,1,7.51,9.25,9.25,0,0,1-4.48,7.05,16.79,16.79,0,0,1-9.12,2.47,8,8,0,0,1-6.06-3,17.05,17.05,0,0,1-3.77-6.86ZM3392.13,266l-12.65-39.67L3366.84,266Z"/><path class="cls-2" d="M3462.2,285.86h24.66a12.76,12.76,0,0,1,8.52,2.82,9.82,9.82,0,0,1,3.33,7.93,9.64,9.64,0,0,1-3.39,7.75,12.61,12.61,0,0,1-8.46,2.88h-33.58q-7,0-11-3.94t-4-11V214.82a14.18,14.18,0,0,1,3.2-9.43,10.86,10.86,0,0,1,8.8-3.83,10.72,10.72,0,0,1,8.73,3.83,14.31,14.31,0,0,1,3.16,9.43Z"/><path class="cls-2" d="M3575.39,224.5v20.77h21.23a12.81,12.81,0,0,1,8.49,2.8,10.72,10.72,0,0,1,0,15.61,12.74,12.74,0,0,1-8.47,2.82h-21.23v29a14.34,14.34,0,0,1-3.15,9.45,10.7,10.7,0,0,1-8.74,3.81,10.87,10.87,0,0,1-8.77-3.83,14.08,14.08,0,0,1-3.24-9.43v-77.9q0-6.78,3.83-10.65t10.69-3.87h34.49A12.68,12.68,0,0,1,3609,206a9.84,9.84,0,0,1,3.37,7.93,9.55,9.55,0,0,1-3.43,7.72,12.68,12.68,0,0,1-8.42,2.87Z"/><path class="cls-2" d="M3678.56,287.42h-39.92l-2.51,9q-3.28,12.35-10.63,12.34a16.52,16.52,0,0,1-9-2.46,9.64,9.64,0,0,1-4.61-7.06,22.83,22.83,0,0,1,1-7.51L3641,214.52a21.35,21.35,0,0,1,6.84-9.72,17.69,17.69,0,0,1,21.6,0,21.05,21.05,0,0,1,6.84,9.76l28.07,77.25a23.49,23.49,0,0,1,1,7.51,9.25,9.25,0,0,1-4.48,7.05,16.79,16.79,0,0,1-9.12,2.47,8,8,0,0,1-6.06-3,17.05,17.05,0,0,1-3.77-6.86ZM3671.4,266l-12.65-39.67L3646.11,266Z"/><path class="cls-2" d="M3713.65,252.13a55.22,55.22,0,0,1,3.74-20.42,48.48,48.48,0,0,1,10.67-16.51,47.89,47.89,0,0,1,16.44-10.8,55.14,55.14,0,0,1,20.66-3.79,63.82,63.82,0,0,1,13.31,1.54,34.7,34.7,0,0,1,12.49,5.17q5.28,3.62,5.28,9.37a13,13,0,0,1-2.4,8,8.15,8.15,0,0,1-6.94,3.2q-2.79,0-8.92-2.32a32.81,32.81,0,0,0-12.16-2.67q-9,0-15,4.25a25.24,25.24,0,0,0-8.86,11.45,42.8,42.8,0,0,0-2.9,16.16q0,17.91,8.92,26.22,7,6.56,17.64,6.56a24.25,24.25,0,0,0,9.49-1.57l7.05-3.27a13.38,13.38,0,0,1,4.69-1.11,9.21,9.21,0,0,1,7.54,3.35,12.1,12.1,0,0,1,2.75,7.89q0,6.75-7.36,11.09-9.87,6-25.43,6a52.82,52.82,0,0,1-18.87-3.45,46.92,46.92,0,0,1-16-10Q3713.65,281.36,3713.65,252.13Z"/><path class="cls-2" d="M3854.31,224.5v71a14.23,14.23,0,0,1-3.18,9.47,12.07,12.07,0,0,1-17.6,0,14,14,0,0,1-3.26-9.43v-71h-14.18a12.8,12.8,0,0,1-8.46-2.84,9.5,9.5,0,0,1-3.43-7.75,9.82,9.82,0,0,1,3.41-7.89,12.65,12.65,0,0,1,8.48-2.9h52a12.68,12.68,0,0,1,8.48,2.86,9.84,9.84,0,0,1,3.37,7.93,9.55,9.55,0,0,1-3.43,7.72,12.68,12.68,0,0,1-8.42,2.87Z"/><path class="cls-2" d="M3885.37,254.5a61.22,61.22,0,0,1,4.25-22.76,48.1,48.1,0,0,1,12.79-18.33q14.18-12.79,34.34-12.8a53.12,53.12,0,0,1,21.09,4.06,47.29,47.29,0,0,1,16.33,11.41,50.61,50.61,0,0,1,10.44,17.19,60.8,60.8,0,0,1,3.62,21.23,67.17,67.17,0,0,1-4.21,23.85,48,48,0,0,1-12.94,19.06,45.73,45.73,0,0,1-15.64,9.37,56.12,56.12,0,0,1-39-.76,46.82,46.82,0,0,1-16.84-11.43Q3885.37,279.58,3885.37,254.5Zm25.46.15a48.44,48.44,0,0,0,2.76,16.27,28.64,28.64,0,0,0,8.63,12.71q5.87,4.89,14.66,4.9,9,0,14.76-4.81a27.56,27.56,0,0,0,8.47-12.49,50.25,50.25,0,0,0,2.67-16.58,45.28,45.28,0,0,0-2.82-16,26.66,26.66,0,0,0-8.74-12.07q-5.92-4.56-14.64-4.56a22.79,22.79,0,0,0-9.81,2.25,24.81,24.81,0,0,0-8.13,6Q3910.83,239.12,3910.83,254.65Z"/><path class="cls-2" d="M4026.8,264.94v30.6a14.38,14.38,0,0,1-3.14,9.45,10.72,10.72,0,0,1-8.75,3.81,10.85,10.85,0,0,1-8.76-3.83,14.08,14.08,0,0,1-3.24-9.43v-77.9q0-6.78,3.83-10.57t10.69-3.79h24q15.93,0,25.77,8.11a29.49,29.49,0,0,1,7.92,10.37,30,30,0,0,1,2.82,12.73q0,14.1-8.11,22-5.34,5.1-16.39,7.66l20.31,22.29q4.62,5,5.45,8.42a20.69,20.69,0,0,1,.31,2.67,11.7,11.7,0,0,1-2.94,7.77,8.78,8.78,0,0,1-6.9,3.47q-8.11,0-12-5.14Zm0-16.69h14.83a13.5,13.5,0,0,0,9.24-3.28,11,11,0,0,0,3.71-8.61,11.18,11.18,0,0,0-4-8.79,13.91,13.91,0,0,0-9.4-3.52H4026.8Z"/><path class="cls-2" d="M4093.91,233.88a30.2,30.2,0,0,1,5.26-17.61,34.11,34.11,0,0,1,14-11.62,43.69,43.69,0,0,1,18.56-4,67.33,67.33,0,0,1,12.59,1.27,31.75,31.75,0,0,1,11.65,4.56,10.11,10.11,0,0,1,4.95,8.84,12,12,0,0,1-3.09,8.31A10.07,10.07,0,0,1,4150,227a11.63,11.63,0,0,1-3.58-.5L4142,225a32.13,32.13,0,0,0-10.79-2,15.36,15.36,0,0,0-8.15,2.25,7,7,0,0,0-3.7,6.33q0,6.39,9.68,8.91l6.4,1.72q15.09,4.08,23.94,11t8.84,20.18q0,16.15-8.88,25.46a31.13,31.13,0,0,1-13.28,8.42,52.4,52.4,0,0,1-16.71,2.67q-15.93,0-27.33-5.49a16.9,16.9,0,0,1-6.44-5.18,12.18,12.18,0,0,1-2.44-7.47,10.62,10.62,0,0,1,3.09-7.43,9.57,9.57,0,0,1,7.2-3.32,15.41,15.41,0,0,1,6.1,1.11l8.27,3.08a31.81,31.81,0,0,0,11.7,2.37,15.22,15.22,0,0,0,9.11-2.88,9.24,9.24,0,0,0,4-7.91,8.47,8.47,0,0,0-3.89-7.62,28.36,28.36,0,0,0-6.25-3q-3-1-10.44-3.22a84.69,84.69,0,0,1-15.36-5.83,23.84,23.84,0,0,1-9.28-8.63Q4093.92,242.86,4093.91,233.88Z"/><rect class="cls-2" x="1161.85" y="1041.22" width="19" height="275.98"/><polygon class="cls-2" points="1123.03 1303.06 1171.35 1386.73 1219.66 1303.06 1123.03 1303.06"/><path class="cls-2" d="M157.63,4115.85a16.87,16.87,0,0,1,3-9.85,19.07,19.07,0,0,1,7.83-6.51,24.38,24.38,0,0,1,10.39-2.26,38.28,38.28,0,0,1,7,.71,17.75,17.75,0,0,1,6.51,2.55,5.68,5.68,0,0,1,2.78,4.95,6.72,6.72,0,0,1-1.73,4.65A5.66,5.66,0,0,1,189,4112a6.68,6.68,0,0,1-2-.27l-2.45-.88a18.16,18.16,0,0,0-6-1.13A8.64,8.64,0,0,0,174,4111a3.94,3.94,0,0,0-2.07,3.54q0,3.59,5.42,5l3.59,1q8.45,2.28,13.39,6.18t4.95,11.29q0,9-5,14.25a17.36,17.36,0,0,1-7.43,4.72,29.5,29.5,0,0,1-9.36,1.49,34.92,34.92,0,0,1-15.29-3.07,9.53,9.53,0,0,1-3.61-2.9,6.82,6.82,0,0,1-1.36-4.18,5.9,5.9,0,0,1,1.73-4.16,5.33,5.33,0,0,1,4-1.86,8.69,8.69,0,0,1,3.41.62l4.63,1.73a17.92,17.92,0,0,0,6.55,1.32,8.57,8.57,0,0,0,5.1-1.61,5.16,5.16,0,0,0,2.24-4.43,4.74,4.74,0,0,0-2.18-4.26,15.81,15.81,0,0,0-3.5-1.7q-1.69-.57-5.84-1.8a47.05,47.05,0,0,1-8.6-3.27,13.24,13.24,0,0,1-5.19-4.83A15.21,15.21,0,0,1,157.63,4115.85Z"/><path class="cls-2" d="M205.7,4127.39a34.09,34.09,0,0,1,2.38-12.73,26.75,26.75,0,0,1,7.15-10.26,27.66,27.66,0,0,1,19.22-7.17,29.85,29.85,0,0,1,11.81,2.27,26.56,26.56,0,0,1,9.14,6.39,28.39,28.39,0,0,1,5.85,9.62,34.15,34.15,0,0,1,2,11.88,37.67,37.67,0,0,1-2.35,13.36,26.87,26.87,0,0,1-7.25,10.66,25.37,25.37,0,0,1-8.75,5.25,31.49,31.49,0,0,1-21.84-.42,26.32,26.32,0,0,1-9.43-6.4Q205.7,4141.42,205.7,4127.39Zm14.25.09a27.11,27.11,0,0,0,1.54,9.11,16,16,0,0,0,4.83,7.11,13.85,13.85,0,0,0,16.47.05,15.31,15.31,0,0,0,4.74-7,28,28,0,0,0,1.49-9.28,25.33,25.33,0,0,0-1.57-9,15,15,0,0,0-4.9-6.76,13,13,0,0,0-8.19-2.55,12.73,12.73,0,0,0-5.49,1.26,14,14,0,0,0-4.55,3.37Q219.94,4118.8,220,4127.48Z"/><path class="cls-2" d="M321.55,4105.27v26.13a43.27,43.27,0,0,1-.92,9.67,19.56,19.56,0,0,1-3.79,7.64,24.84,24.84,0,0,1-9.11,7.15,26.7,26.7,0,0,1-11.43,2.55,27.58,27.58,0,0,1-9.71-1.72,25.36,25.36,0,0,1-8.16-4.85,22.51,22.51,0,0,1-7.56-17v-29.55a7.94,7.94,0,0,1,1.8-5.28,6.11,6.11,0,0,1,4.94-2.14,6,6,0,0,1,4.86,2.14,8,8,0,0,1,1.77,5.28v27.63a13.65,13.65,0,0,0,2.8,9,10.54,10.54,0,0,0,4.12,3,12.82,12.82,0,0,0,5,1.06,12.47,12.47,0,0,0,5.28-1.19,10.58,10.58,0,0,0,4.15-3.35q2.53-3.33,2.54-10v-26.13A8,8,0,0,1,310,4100a6,6,0,0,1,4.87-2.14,6.08,6.08,0,0,1,4.9,2.14A7.89,7.89,0,0,1,321.55,4105.27Z"/><path class="cls-2" d="M345.15,4133.24v17.13a8.06,8.06,0,0,1-1.76,5.29,6,6,0,0,1-4.9,2.13,6.08,6.08,0,0,1-4.9-2.14,7.9,7.9,0,0,1-1.82-5.28v-43.6a7.94,7.94,0,0,1,2.15-5.92,8.11,8.11,0,0,1,6-2.13h13.46q8.92,0,14.42,4.55a16.34,16.34,0,0,1,4.44,5.8,16.83,16.83,0,0,1,1.58,7.12q0,7.91-4.54,12.33c-2,1.91-5.05,3.34-9.18,4.29l11.37,12.48a12,12,0,0,1,3.05,4.72,10.13,10.13,0,0,1,.17,1.49,6.52,6.52,0,0,1-1.64,4.35,4.9,4.9,0,0,1-3.86,1.94q-4.55,0-6.72-2.88Zm0-9.34h8.3a7.56,7.56,0,0,0,5.17-1.84,6.1,6.1,0,0,0,2.08-4.82,6.28,6.28,0,0,0-2.27-4.92,7.82,7.82,0,0,0-5.26-2h-8Z"/><path class="cls-2" d="M381.93,4126.07a30.79,30.79,0,0,1,2.09-11.43,26.68,26.68,0,0,1,15.17-15.29,31,31,0,0,1,11.57-2.12,36.12,36.12,0,0,1,7.45.86,19.49,19.49,0,0,1,7,2.89,6.13,6.13,0,0,1,2.95,5.25,7.24,7.24,0,0,1-1.34,4.5,4.55,4.55,0,0,1-3.88,1.79,16.21,16.21,0,0,1-5-1.3,18.55,18.55,0,0,0-6.81-1.49,13.46,13.46,0,0,0-13.33,8.79,24.06,24.06,0,0,0-1.62,9q0,10,5,14.68a15.6,15.6,0,0,0,15.19,2.8l3.94-1.84a7.63,7.63,0,0,1,2.63-.62,5.16,5.16,0,0,1,4.22,1.88,6.73,6.73,0,0,1,1.54,4.42c0,2.51-1.38,4.58-4.12,6.2q-5.54,3.33-14.24,3.33a29.52,29.52,0,0,1-10.56-1.93,26.23,26.23,0,0,1-8.94-5.6Q381.92,4142.43,381.93,4126.07Z"/><path class="cls-2" d="M450.11,4110.6v11.1h12.48a7.13,7.13,0,0,1,4.73,1.6,5.44,5.44,0,0,1,1.92,4.43,5.36,5.36,0,0,1-1.94,4.33,7.16,7.16,0,0,1-4.71,1.61H450.11V4145h13.8a7.17,7.17,0,0,1,4.77,1.58,5.5,5.5,0,0,1,1.86,4.44,5.39,5.39,0,0,1-1.9,4.34,7.06,7.06,0,0,1-4.73,1.61H444.86a7.41,7.41,0,0,1-8.13-8.13v-42a7.46,7.46,0,0,1,8.13-8.13h19.05a7.07,7.07,0,0,1,4.77,1.6,5.52,5.52,0,0,1,1.86,4.43,5.35,5.35,0,0,1-1.9,4.32,7,7,0,0,1-4.73,1.61Z"/><path class="cls-2" d="M480.06,4125.9a6.75,6.75,0,0,1,2.12-5,6.92,6.92,0,0,1,5-2.1,6.76,6.76,0,0,1,3.51,1,7.26,7.26,0,0,1,2.61,2.61,6.88,6.88,0,0,1,1,3.51,7,7,0,0,1-2.08,5.05,6.79,6.79,0,0,1-5,2.12,7.2,7.2,0,0,1-7.16-7.17Zm0,25.34a6.75,6.75,0,0,1,2.12-5,6.92,6.92,0,0,1,5-2.1,6.76,6.76,0,0,1,3.51,1,7.26,7.26,0,0,1,2.61,2.61,6.93,6.93,0,0,1,1,3.51,7,7,0,0,1-2.08,5.05,6.79,6.79,0,0,1-5,2.12,7.2,7.2,0,0,1-7.16-7.17Z"/><path class="cls-2" d="M543.52,4133.24v17.13a8.06,8.06,0,0,1-1.76,5.29,6,6,0,0,1-4.89,2.13,6.09,6.09,0,0,1-4.91-2.14,7.89,7.89,0,0,1-1.81-5.28v-43.6a7.93,7.93,0,0,1,2.14-5.92,8.11,8.11,0,0,1,6-2.13h13.46q8.92,0,14.43,4.55a16.43,16.43,0,0,1,4.43,5.8,16.68,16.68,0,0,1,1.58,7.12q0,7.91-4.54,12.33-3,2.86-9.18,4.29l11.38,12.48a12.13,12.13,0,0,1,3,4.72,11.8,11.8,0,0,1,.17,1.49,6.53,6.53,0,0,1-1.65,4.35,4.9,4.9,0,0,1-3.86,1.94q-4.54,0-6.72-2.88Zm0-9.34h8.3a7.54,7.54,0,0,0,5.17-1.84,6.1,6.1,0,0,0,2.08-4.82,6.25,6.25,0,0,0-2.27-4.92,7.8,7.8,0,0,0-5.26-2h-8Z"/><path class="cls-2" d="M595.87,4110.6v11.1h12.48a7.14,7.14,0,0,1,4.74,1.6,5.44,5.44,0,0,1,1.92,4.43,5.36,5.36,0,0,1-1.94,4.33,7.18,7.18,0,0,1-4.72,1.61H595.87V4145h13.8a7.13,7.13,0,0,1,4.77,1.58,5.48,5.48,0,0,1,1.87,4.44,5.39,5.39,0,0,1-1.9,4.34,7.09,7.09,0,0,1-4.74,1.61h-19a7.41,7.41,0,0,1-8.12-8.13v-42a7.45,7.45,0,0,1,8.12-8.13h19a7,7,0,0,1,4.77,1.6,5.5,5.5,0,0,1,1.87,4.43,5.35,5.35,0,0,1-1.9,4.32,7,7,0,0,1-4.74,1.61Z"/><path class="cls-2" d="M624,4115.85a16.86,16.86,0,0,1,2.94-9.85,19.07,19.07,0,0,1,7.83-6.51,24.41,24.41,0,0,1,10.39-2.26,38.19,38.19,0,0,1,7.05.71,17.8,17.8,0,0,1,6.52,2.55,5.67,5.67,0,0,1,2.77,4.95,6.67,6.67,0,0,1-1.73,4.65,5.64,5.64,0,0,1-4.39,1.92,6.7,6.7,0,0,1-2-.27l-2.45-.88a18.12,18.12,0,0,0-6-1.13,8.6,8.6,0,0,0-4.56,1.26,3.94,3.94,0,0,0-2.07,3.54c0,2.39,1.8,4.05,5.42,5l3.58,1q8.44,2.28,13.4,6.18t5,11.29q0,9-5,14.25a17.45,17.45,0,0,1-7.44,4.72,29.48,29.48,0,0,1-9.35,1.49,34.94,34.94,0,0,1-15.3-3.07,9.5,9.5,0,0,1-3.6-2.9,6.83,6.83,0,0,1-1.37-4.18,6,6,0,0,1,1.73-4.16,5.35,5.35,0,0,1,4-1.86,8.65,8.65,0,0,1,3.41.62l4.63,1.73a17.92,17.92,0,0,0,6.55,1.32,8.53,8.53,0,0,0,5.1-1.61,5.14,5.14,0,0,0,2.24-4.43,4.73,4.73,0,0,0-2.17-4.26,16.24,16.24,0,0,0-3.5-1.7q-1.71-.57-5.85-1.8a47.34,47.34,0,0,1-8.6-3.27,13.24,13.24,0,0,1-5.19-4.83A15.21,15.21,0,0,1,624,4115.85Z"/><path class="cls-2" d="M688.05,4110.6v11.1h12.48a7.14,7.14,0,0,1,4.74,1.6,5.44,5.44,0,0,1,1.92,4.43,5.36,5.36,0,0,1-1.94,4.33,7.18,7.18,0,0,1-4.72,1.61H688.05V4145h13.8a7.13,7.13,0,0,1,4.77,1.58,6.05,6.05,0,0,1,0,8.78,7.11,7.11,0,0,1-4.74,1.61H682.8a7.41,7.41,0,0,1-8.12-8.13v-42a7.45,7.45,0,0,1,8.12-8.13h19.05a7,7,0,0,1,4.77,1.6,5.5,5.5,0,0,1,1.87,4.43,5.38,5.38,0,0,1-1.9,4.32,7.06,7.06,0,0,1-4.74,1.61Z"/><path class="cls-2" d="M751.39,4145.83H729.05l-1.41,5.05q-1.83,6.91-5.95,6.91a9.28,9.28,0,0,1-5-1.37,5.38,5.38,0,0,1-2.58-4,13,13,0,0,1,.53-4.2L730.35,4105a11.91,11.91,0,0,1,3.82-5.44,9.9,9.9,0,0,1,12.09,0,11.66,11.66,0,0,1,3.83,5.46l15.72,43.24a13.37,13.37,0,0,1,.53,4.2,5.17,5.17,0,0,1-2.5,3.95,9.47,9.47,0,0,1-5.11,1.38,4.44,4.44,0,0,1-3.39-1.66,9.53,9.53,0,0,1-2.11-3.84Zm-4-12-7.08-22.21-7.07,22.21Z"/><path class="cls-2" d="M786.61,4133.24v17.13a8.06,8.06,0,0,1-1.76,5.29,6.69,6.69,0,0,1-9.8,0,7.9,7.9,0,0,1-1.82-5.28v-43.6a7.94,7.94,0,0,1,2.15-5.92,8.11,8.11,0,0,1,6-2.13h13.46q8.92,0,14.42,4.55a16.34,16.34,0,0,1,4.44,5.8,16.83,16.83,0,0,1,1.58,7.12q0,7.91-4.55,12.33-3,2.86-9.17,4.29l11.37,12.48A12,12,0,0,1,816,4150a10.13,10.13,0,0,1,.17,1.49,6.57,6.57,0,0,1-1.64,4.35,4.91,4.91,0,0,1-3.86,1.94q-4.54,0-6.72-2.88Zm0-9.34h8.3a7.56,7.56,0,0,0,5.17-1.84,6.1,6.1,0,0,0,2.08-4.82,6.28,6.28,0,0,0-2.27-4.92,7.82,7.82,0,0,0-5.26-2h-8Z"/><path class="cls-2" d="M823.39,4126.07a30.79,30.79,0,0,1,2.09-11.43,26.68,26.68,0,0,1,15.17-15.29,31,31,0,0,1,11.57-2.12,36.12,36.12,0,0,1,7.45.86,19.49,19.49,0,0,1,7,2.89,6.13,6.13,0,0,1,3,5.25,7.24,7.24,0,0,1-1.34,4.5,4.55,4.55,0,0,1-3.88,1.79,16.25,16.25,0,0,1-5-1.3,18.46,18.46,0,0,0-6.8-1.49,13.46,13.46,0,0,0-13.33,8.79,24.06,24.06,0,0,0-1.62,9q0,10,5,14.68a15.6,15.6,0,0,0,15.19,2.8l3.94-1.84a7.63,7.63,0,0,1,2.63-.62,5.16,5.16,0,0,1,4.22,1.88,6.78,6.78,0,0,1,1.54,4.42c0,2.51-1.38,4.58-4.12,6.2q-5.53,3.33-14.24,3.33a29.52,29.52,0,0,1-10.56-1.93,26.23,26.23,0,0,1-8.94-5.6Q823.38,4142.43,823.39,4126.07Z"/><path class="cls-2" d="M916.27,4133.07H891.48v17.3a8.06,8.06,0,0,1-1.76,5.29,6,6,0,0,1-4.9,2.13,6.08,6.08,0,0,1-4.9-2.14,7.9,7.9,0,0,1-1.82-5.28v-45.18a7.94,7.94,0,0,1,1.8-5.28,6.06,6.06,0,0,1,4.92-2.15,6,6,0,0,1,4.89,2.15,8,8,0,0,1,1.77,5.28v15.91h24.79v-15.91a8,8,0,0,1,1.78-5.28,6,6,0,0,1,4.86-2.15,6.11,6.11,0,0,1,4.92,2.14,7.86,7.86,0,0,1,1.81,5.29v45.18a7.94,7.94,0,0,1-1.78,5.3,6.1,6.1,0,0,1-5,2.12,6,6,0,0,1-4.87-2.14,8,8,0,0,1-1.77-5.28Z"/><path class="cls-2" d="M978.41,4110.6v11.63h11.88a7.15,7.15,0,0,1,4.76,1.57,6,6,0,0,1,0,8.74,7.16,7.16,0,0,1-4.75,1.57H978.41v16.26a8.06,8.06,0,0,1-1.76,5.29,6,6,0,0,1-4.9,2.13,6.08,6.08,0,0,1-4.9-2.14,7.9,7.9,0,0,1-1.82-5.28v-43.6a7.47,7.47,0,0,1,8.13-8.13h19.31a7,7,0,0,1,4.74,1.6,5.48,5.48,0,0,1,1.89,4.43,5.34,5.34,0,0,1-1.92,4.32,7,7,0,0,1-4.71,1.61Z"/><path class="cls-2" d="M1007.59,4150.37v-45.18a8,8,0,0,1,1.79-5.28,6.09,6.09,0,0,1,4.93-2.15,6,6,0,0,1,4.89,2.15,8,8,0,0,1,1.77,5.28v45.18a8.06,8.06,0,0,1-1.76,5.29,6,6,0,0,1-4.9,2.13,6.08,6.08,0,0,1-4.9-2.14A7.9,7.9,0,0,1,1007.59,4150.37Z"/><path class="cls-2" d="M1045.07,4121.61v28.76a8,8,0,0,1-1.76,5.29,6,6,0,0,1-4.89,2.13,6.1,6.1,0,0,1-4.91-2.14,7.89,7.89,0,0,1-1.81-5.28v-45.7a7,7,0,0,1,1.83-4.92,6.13,6.13,0,0,1,4.72-2,6.84,6.84,0,0,1,5.59,3l25.77,32.42v-28a8,8,0,0,1,1.79-5.28,6.1,6.1,0,0,1,4.94-2.15,6,6,0,0,1,4.86,2.14,8,8,0,0,1,1.78,5.29v44.92a8.22,8.22,0,0,1-1.75,5.68,6.43,6.43,0,0,1-9.79-.54Z"/><path class="cls-2" d="M1093.82,4148.62v-41.85a7.46,7.46,0,0,1,8.13-8.13h12.58q11.35,0,18.61,5.33a24.15,24.15,0,0,1,8,10.33,34.45,34.45,0,0,1,2.72,13.52,33.21,33.21,0,0,1-3.29,15,24.57,24.57,0,0,1-9.51,10.39,27.74,27.74,0,0,1-14.64,3.76l-14.67-.17a7.78,7.78,0,0,1-5.85-2.17A8.16,8.16,0,0,1,1093.82,4148.62Zm13.38-3.33h6.63q7.47,0,11.18-3.92,4.62-4.87,4.63-13.55,0-9.26-5.34-13.89-4-3.59-12-3.58h-5.14Z"/><path class="cls-2" d="M1152.1,4150.37v-45.18a8,8,0,0,1,1.79-5.28,6.09,6.09,0,0,1,4.93-2.15,6,6,0,0,1,4.89,2.15,8,8,0,0,1,1.77,5.28v45.18a8.06,8.06,0,0,1-1.76,5.29,6,6,0,0,1-4.9,2.13,6.1,6.1,0,0,1-4.91-2.14A7.89,7.89,0,0,1,1152.1,4150.37Z"/><path class="cls-2" d="M1189.58,4121.61v28.76a8,8,0,0,1-1.76,5.29,6,6,0,0,1-4.89,2.13,6.09,6.09,0,0,1-4.91-2.14,7.89,7.89,0,0,1-1.81-5.28v-45.7a7,7,0,0,1,1.83-4.92,6.12,6.12,0,0,1,4.72-2,6.82,6.82,0,0,1,5.58,3l25.78,32.42v-28a7.93,7.93,0,0,1,1.79-5.28,6.1,6.1,0,0,1,4.94-2.15,6,6,0,0,1,4.86,2.14,8,8,0,0,1,1.78,5.29v44.92a8.22,8.22,0,0,1-1.75,5.68,6.43,6.43,0,0,1-9.79-.54Z"/><path class="cls-2" d="M1277.56,4134.37h-7.77a7.18,7.18,0,0,1-4.73-1.59,5.91,5.91,0,0,1,0-8.7,7.14,7.14,0,0,1,4.75-1.59h14.32q3.92,0,5.54,2.13c1.08,1.42,1.63,3.53,1.63,6.34a27.45,27.45,0,0,1-7.6,19.58q-7.48,7.88-19.13,7.87a30.4,30.4,0,0,1-11.91-2.37,26.56,26.56,0,0,1-9.68-6.91q-7.35-8.4-7.34-21.84a30.69,30.69,0,0,1,3.84-15.1,28.72,28.72,0,0,1,25.51-15,31.45,31.45,0,0,1,16.43,4.2q5.55,3.39,5.86,7.33a6.53,6.53,0,0,1-1.73,4.57,5.44,5.44,0,0,1-4.13,1.89,9.34,9.34,0,0,1-4.72-1.66l-3.41-2.18a14.49,14.49,0,0,0-8.21-2.18,13.16,13.16,0,0,0-8.33,2.66,16,16,0,0,0-5.15,6.93,24.25,24.25,0,0,0-1.71,9.12,24.55,24.55,0,0,0,1.66,9.09,15.69,15.69,0,0,0,5.06,6.84,13.2,13.2,0,0,0,8.3,2.6q6.52,0,9.79-4.44A19,19,0,0,0,1277.56,4134.37Z"/><path class="cls-2" d="M1297.48,4160.67l7.85-13.63a5.54,5.54,0,0,1,5-2.88,6.4,6.4,0,0,1,4.35,1.72,5.33,5.33,0,0,1,1.94,4.13,7.34,7.34,0,0,1-.71,3l-7.68,13.63a5.51,5.51,0,0,1-5.16,3.06,6.23,6.23,0,0,1-4.48-1.85,6,6,0,0,1-1.9-4.45A7.54,7.54,0,0,1,1297.48,4160.67Z"/><path class="cls-2" d="M1369.05,4145.12h13.89a7,7,0,0,1,4.69,1.58,5.42,5.42,0,0,1,1.86,4.37,5.28,5.28,0,0,1-1.88,4.28,7,7,0,0,1-4.67,1.57h-26.39q-4,0-5.84-1.84a5.74,5.74,0,0,1-1.5-4.29,5.94,5.94,0,0,1,1-2.9,24,24,0,0,1,2.5-3c.17-.18,1.14-1.27,2.89-3.27s3.36-3.81,4.81-5.47L1364,4132l2.1-2.4a92.35,92.35,0,0,0,6.15-7.71,11.29,11.29,0,0,0,2.32-6.46,6.8,6.8,0,0,0-.68-3,5.72,5.72,0,0,0-1.94-2.25,4.82,4.82,0,0,0-2.8-.85q-5,0-6.55,5.85a38.42,38.42,0,0,1-1.24,4,5.83,5.83,0,0,1-1.75,2.38,5.12,5.12,0,0,1-3.39,1,5.67,5.67,0,0,1-4.47-1.86,6.8,6.8,0,0,1-1.65-4.69,17,17,0,0,1,1.6-7.24,19.68,19.68,0,0,1,4.37-6.09,20.42,20.42,0,0,1,6.32-4.08,19,19,0,0,1,7.29-1.46,19.7,19.7,0,0,1,7,1.27,19,19,0,0,1,6,3.59,16.83,16.83,0,0,1,4.09,5.55,16.38,16.38,0,0,1,1.49,7,20.76,20.76,0,0,1-2,9,45.19,45.19,0,0,1-5.64,8.72A164,164,0,0,1,1369.05,4145.12Z"/><path class="cls-2" d="M1396.57,4127.39a34.29,34.29,0,0,1,2.38-12.73,26.78,26.78,0,0,1,7.16-10.26,27.66,27.66,0,0,1,19.22-7.17,29.89,29.89,0,0,1,11.81,2.27,26.65,26.65,0,0,1,9.14,6.39,28.52,28.52,0,0,1,5.84,9.62,34.15,34.15,0,0,1,2,11.88,37.67,37.67,0,0,1-2.36,13.36,26.75,26.75,0,0,1-7.24,10.66,25.41,25.41,0,0,1-8.76,5.25,31.47,31.47,0,0,1-21.83-.42,26.24,26.24,0,0,1-9.43-6.4Q1396.58,4141.42,1396.57,4127.39Zm14.25.09a27.12,27.12,0,0,0,1.55,9.11,16,16,0,0,0,4.83,7.11,12.35,12.35,0,0,0,8.2,2.74,12.47,12.47,0,0,0,8.26-2.69,15.41,15.41,0,0,0,4.75-7,28.26,28.26,0,0,0,1.49-9.28,25.34,25.34,0,0,0-1.58-9,14.88,14.88,0,0,0-4.89-6.76,13,13,0,0,0-8.2-2.55,12.8,12.8,0,0,0-5.49,1.26,14,14,0,0,0-4.55,3.37Q1410.82,4118.8,1410.82,4127.48Z"/><path class="cls-2" d="M1477,4110.43h-4a7.11,7.11,0,0,1-4.68-1.56,5.3,5.3,0,0,1-1.89-4.3,5.36,5.36,0,0,1,1.88-4.34,7,7,0,0,1,4.69-1.59h10.22a7,7,0,0,1,5.22,1.88,7.18,7.18,0,0,1,1.86,5.29v44.64a7.9,7.9,0,0,1-1.75,5.22,6.64,6.64,0,0,1-9.74,0,7.8,7.8,0,0,1-1.8-5.21Z"/><path class="cls-2" d="M1521,4145.12h13.88a7,7,0,0,1,4.7,1.58,5.45,5.45,0,0,1,1.85,4.37,5.27,5.27,0,0,1-1.87,4.28,7,7,0,0,1-4.68,1.57h-26.39q-4,0-5.84-1.84a5.74,5.74,0,0,1-1.49-4.29,5.82,5.82,0,0,1,1-2.9,24,24,0,0,1,2.5-3c.18-.18,1.14-1.27,2.9-3.27l4.81-5.47,3.57-4.08,2.1-2.4a92.35,92.35,0,0,0,6.15-7.71,11.29,11.29,0,0,0,2.32-6.46,6.8,6.8,0,0,0-.68-3,5.78,5.78,0,0,0-1.93-2.25,4.87,4.87,0,0,0-2.81-.85q-5,0-6.55,5.85a38.42,38.42,0,0,1-1.24,4,5.81,5.81,0,0,1-1.74,2.38,5.17,5.17,0,0,1-3.4,1,5.7,5.7,0,0,1-4.47-1.86,6.8,6.8,0,0,1-1.65-4.69,17,17,0,0,1,1.6-7.24,19.68,19.68,0,0,1,4.37-6.09,20.42,20.42,0,0,1,6.32-4.08,19,19,0,0,1,7.29-1.46,19.7,19.7,0,0,1,7.05,1.27,19,19,0,0,1,6,3.59,16.83,16.83,0,0,1,4.09,5.55,16.38,16.38,0,0,1,1.5,7,20.62,20.62,0,0,1-2,9,45.19,45.19,0,0,1-5.64,8.72A166,166,0,0,1,1521,4145.12Z"/><rect class="cls-1" x="2675.61" y="433.06" width="2150.04" height="223.12" rx="111.56"/><path class="cls-2" d="M4714.09,665.68H2787.17a121.06,121.06,0,1,1,0-242.12H4714.09a121.06,121.06,0,0,1,0,242.12ZM2787.17,442.56a102.06,102.06,0,1,0,0,204.12H4714.09a102.06,102.06,0,0,0,0-204.12Z"/><path class="cls-2" d="M2824.8,573.22h-39.92l-2.52,9q-3.27,12.36-10.63,12.35a16.48,16.48,0,0,1-8.95-2.46,9.63,9.63,0,0,1-4.61-7.07,23.12,23.12,0,0,1,.95-7.5l28.08-77.25a21.22,21.22,0,0,1,6.84-9.72,17.69,17.69,0,0,1,21.6,0,21,21,0,0,1,6.83,9.76l28.08,77.25a23.8,23.8,0,0,1,.95,7.5,9.21,9.21,0,0,1-4.47,7,16.73,16.73,0,0,1-9.13,2.48,8,8,0,0,1-6.06-3,17.29,17.29,0,0,1-3.77-6.86Zm-7.16-21.38L2805,512.17l-12.65,39.67Z"/><path class="cls-2" d="M2901.88,510.3v71a14.23,14.23,0,0,1-3.18,9.47,12.08,12.08,0,0,1-17.61,0,14.06,14.06,0,0,1-3.25-9.43v-71h-14.18a12.76,12.76,0,0,1-8.46-2.84,9.52,9.52,0,0,1-3.43-7.75,9.82,9.82,0,0,1,3.41-7.89,12.65,12.65,0,0,1,8.48-2.9h52a12.63,12.63,0,0,1,8.48,2.86,9.84,9.84,0,0,1,3.37,7.93,9.53,9.53,0,0,1-3.43,7.71,12.63,12.63,0,0,1-8.42,2.88Z"/><path class="cls-2" d="M2986.14,510.3v71a14.23,14.23,0,0,1-3.18,9.47,12.07,12.07,0,0,1-17.6,0,14,14,0,0,1-3.26-9.43v-71h-14.18a12.8,12.8,0,0,1-8.46-2.84,9.52,9.52,0,0,1-3.43-7.75,9.82,9.82,0,0,1,3.41-7.89,12.65,12.65,0,0,1,8.48-2.9h52a12.63,12.63,0,0,1,8.48,2.86,9.84,9.84,0,0,1,3.38,7.93,9.54,9.54,0,0,1-3.44,7.71,12.63,12.63,0,0,1-8.42,2.88Z"/><path class="cls-2" d="M3023.76,581.34V500.62a14.23,14.23,0,0,1,3.2-9.43,10.86,10.86,0,0,1,8.8-3.83,10.72,10.72,0,0,1,8.73,3.83,14.31,14.31,0,0,1,3.16,9.43v80.72a14.33,14.33,0,0,1-3.14,9.45,10.72,10.72,0,0,1-8.75,3.81,10.89,10.89,0,0,1-8.76-3.83A14.1,14.1,0,0,1,3023.76,581.34Z"/><path class="cls-2" d="M3109.58,510.3v71a14.23,14.23,0,0,1-3.18,9.47,12.08,12.08,0,0,1-17.61,0,14.06,14.06,0,0,1-3.25-9.43v-71h-14.18a12.78,12.78,0,0,1-8.46-2.84,9.52,9.52,0,0,1-3.43-7.75,9.82,9.82,0,0,1,3.41-7.89,12.65,12.65,0,0,1,8.48-2.9h52a12.63,12.63,0,0,1,8.48,2.86,9.84,9.84,0,0,1,3.37,7.93,9.53,9.53,0,0,1-3.43,7.71,12.63,12.63,0,0,1-8.42,2.88Z"/><path class="cls-2" d="M3236.64,500.77v46.69a77,77,0,0,1-1.66,17.26,34.93,34.93,0,0,1-6.76,13.65A44.36,44.36,0,0,1,3212,591.15a47.73,47.73,0,0,1-20.43,4.56,49.55,49.55,0,0,1-17.34-3.07A45.88,45.88,0,0,1,3159.6,584a40.28,40.28,0,0,1-13.51-30.41V500.77a14.21,14.21,0,0,1,3.22-9.43,10.93,10.93,0,0,1,8.82-3.83,10.67,10.67,0,0,1,8.69,3.83,14.33,14.33,0,0,1,3.17,9.43v49.36q0,10,5,16a18.93,18.93,0,0,0,7.36,5.32,23.06,23.06,0,0,0,9,1.88,22.2,22.2,0,0,0,9.43-2.13,18.86,18.86,0,0,0,7.41-6q4.54-6,4.54-17.8V500.77a14.2,14.2,0,0,1,3.2-9.43,10.73,10.73,0,0,1,8.69-3.83,10.89,10.89,0,0,1,8.76,3.83A14.12,14.12,0,0,1,3236.64,500.77Z"/><path class="cls-2" d="M3254.9,578.21V503.44q0-6.78,3.83-10.65t10.69-3.87h22.48q20.28,0,33.23,9.53a43,43,0,0,1,14.35,18.45,61.45,61.45,0,0,1,4.86,24.16,59.4,59.4,0,0,1-5.87,26.71,44,44,0,0,1-17,18.56q-11.11,6.7-26.14,6.71l-26.22-.31c-4.44,0-7.93-1.29-10.44-3.86S3254.9,582.74,3254.9,578.21Zm23.89-5.94h11.85q13.35,0,20-7,8.28-8.7,8.27-24.2,0-16.54-9.52-24.81-7.14-6.4-21.38-6.41h-9.19Z"/><path class="cls-2" d="M3382.91,510.3v19.82h22.29a12.72,12.72,0,0,1,8.46,2.86,9.74,9.74,0,0,1,3.43,7.92,9.52,9.52,0,0,1-3.46,7.72,12.77,12.77,0,0,1-8.43,2.88h-22.29v20.16h24.66a12.72,12.72,0,0,1,8.51,2.82,9.79,9.79,0,0,1,3.34,7.93,9.64,9.64,0,0,1-3.39,7.75,12.65,12.65,0,0,1-8.46,2.88h-34q-6.9,0-10.71-3.81T3359,578.52V503.44q0-6.78,3.83-10.65t10.69-3.87h34a12.59,12.59,0,0,1,8.51,2.86,9.88,9.88,0,0,1,3.34,7.93,9.59,9.59,0,0,1-3.39,7.71,12.65,12.65,0,0,1-8.46,2.88Z"/><path class="cls-2" d="M3493.24,497.5l-45.43,109.6q-2.7,7.32-7,7.32a9.53,9.53,0,0,1-5.53-1.75,5.91,5.91,0,0,1-2.74-4.5,21.59,21.59,0,0,1,1.71-6.71l45.43-109.72q1.95-5.49,6.25-5.49a9.33,9.33,0,0,1,5.53,1.78,5.76,5.76,0,0,1,2.59,4.63A12.85,12.85,0,0,1,3493.24,497.5Z"/><path class="cls-2" d="M3534,510.3v20.77h21.23a12.86,12.86,0,0,1,8.5,2.8,10.75,10.75,0,0,1,0,15.61,12.76,12.76,0,0,1-8.48,2.82H3534v29a14.33,14.33,0,0,1-3.14,9.45,10.72,10.72,0,0,1-8.75,3.81,10.89,10.89,0,0,1-8.76-3.83,14.1,14.1,0,0,1-3.24-9.43v-77.9q0-6.78,3.83-10.65t10.69-3.87h34.49a12.65,12.65,0,0,1,8.48,2.86,9.84,9.84,0,0,1,3.37,7.93,9.53,9.53,0,0,1-3.43,7.71,12.65,12.65,0,0,1-8.42,2.88Z"/><path class="cls-2" d="M3610,510.3v19.82h22.3a12.76,12.76,0,0,1,8.46,2.86,9.74,9.74,0,0,1,3.43,7.92,9.52,9.52,0,0,1-3.47,7.72,12.74,12.74,0,0,1-8.42,2.88H3610v20.16h24.66a12.73,12.73,0,0,1,8.52,2.82,9.82,9.82,0,0,1,3.33,7.93,9.64,9.64,0,0,1-3.39,7.75,12.61,12.61,0,0,1-8.46,2.88h-34q-6.9,0-10.71-3.81t-3.81-10.71V503.44q0-6.78,3.83-10.65t10.69-3.87h34a12.6,12.6,0,0,1,8.52,2.86,9.9,9.9,0,0,1,3.33,7.93,9.59,9.59,0,0,1-3.39,7.71,12.61,12.61,0,0,1-8.46,2.88Z"/><path class="cls-2" d="M3686.68,510.3v19.82H3709a12.76,12.76,0,0,1,8.46,2.86,9.77,9.77,0,0,1,3.43,7.92,9.52,9.52,0,0,1-3.47,7.72,12.74,12.74,0,0,1-8.42,2.88h-22.3v20.16h24.66a12.75,12.75,0,0,1,8.52,2.82,9.82,9.82,0,0,1,3.33,7.93,9.64,9.64,0,0,1-3.39,7.75,12.61,12.61,0,0,1-8.46,2.88h-34q-6.9,0-10.71-3.81t-3.81-10.71V503.44q0-6.78,3.83-10.65t10.69-3.87h34a12.61,12.61,0,0,1,8.52,2.86,9.9,9.9,0,0,1,3.33,7.93,9.59,9.59,0,0,1-3.39,7.71,12.61,12.61,0,0,1-8.46,2.88Z"/><path class="cls-2" d="M3763.32,571.66H3788a12.75,12.75,0,0,1,8.52,2.82,9.82,9.82,0,0,1,3.33,7.93,9.64,9.64,0,0,1-3.39,7.75A12.61,12.61,0,0,1,3788,593h-33.57q-7,0-11-3.95t-4-11V500.62a14.23,14.23,0,0,1,3.2-9.43,10.86,10.86,0,0,1,8.8-3.83,10.72,10.72,0,0,1,8.73,3.83,14.31,14.31,0,0,1,3.16,9.43Z"/><path class="cls-2" d="M3808.75,581.34V500.62a14.23,14.23,0,0,1,3.2-9.43,10.88,10.88,0,0,1,8.81-3.83,10.71,10.71,0,0,1,8.72,3.83,14.32,14.32,0,0,1,3.17,9.43v80.72a14.34,14.34,0,0,1-3.15,9.45,10.7,10.7,0,0,1-8.74,3.81,10.9,10.9,0,0,1-8.77-3.83A14.1,14.1,0,0,1,3808.75,581.34Z"/><path class="cls-2" d="M3875.71,530v51.37a14.34,14.34,0,0,1-3.15,9.45,10.7,10.7,0,0,1-8.74,3.81,10.9,10.9,0,0,1-8.77-3.83,14.1,14.1,0,0,1-3.24-9.43V499.71a12.52,12.52,0,0,1,3.28-8.81,11,11,0,0,1,8.42-3.54q5.91,0,10,5.3l46,57.92v-50a14.18,14.18,0,0,1,3.2-9.43,10.9,10.9,0,0,1,8.82-3.83,10.72,10.72,0,0,1,8.68,3.81,14.2,14.2,0,0,1,3.19,9.45v80.26q0,6.68-3.13,10.14a11.48,11.48,0,0,1-17.48-.95Z"/><path class="cls-2" d="M4032.88,552.76H4019a12.85,12.85,0,0,1-8.46-2.84,10.57,10.57,0,0,1,0-15.55,12.81,12.81,0,0,1,8.5-2.84h25.57q7,0,9.91,3.81t2.9,11.32q0,20.65-13.57,35-13.38,14.07-34.18,14.07a54.34,54.34,0,0,1-21.27-4.23,47.66,47.66,0,0,1-17.3-12.35q-13.11-15-13.11-39a54.85,54.85,0,0,1,6.86-27,51.27,51.27,0,0,1,45.58-26.73q16.77,0,29.34,7.5,9.92,6.06,10.48,13.1a11.63,11.63,0,0,1-3.1,8.15,9.68,9.68,0,0,1-7.38,3.39q-3.61,0-8.42-3l-6.1-3.89q-5.86-3.9-14.67-3.89a23.6,23.6,0,0,0-14.88,4.75,28.72,28.72,0,0,0-9.2,12.38,43.37,43.37,0,0,0-3.05,16.29,44,44,0,0,0,3,16.25,27.88,27.88,0,0,0,9,12.21,23.58,23.58,0,0,0,14.83,4.66q11.66,0,17.49-7.94Q4031.2,561.65,4032.88,552.76Z"/><path class="cls-2" d="M4139.81,510.3v20.77H4161a12.86,12.86,0,0,1,8.5,2.8,10.75,10.75,0,0,1,0,15.61,12.78,12.78,0,0,1-8.48,2.82h-21.23v29a14.38,14.38,0,0,1-3.14,9.45,10.72,10.72,0,0,1-8.75,3.81,10.88,10.88,0,0,1-8.76-3.83,14.1,14.1,0,0,1-3.24-9.43v-77.9q0-6.78,3.83-10.65t10.69-3.87h34.49a12.65,12.65,0,0,1,8.48,2.86,9.87,9.87,0,0,1,3.37,7.93,9.56,9.56,0,0,1-3.43,7.71,12.67,12.67,0,0,1-8.42,2.88Z"/><path class="cls-2" d="M4243,573.22h-39.93l-2.51,9q-3.29,12.36-10.63,12.35a16.48,16.48,0,0,1-8.95-2.46,9.63,9.63,0,0,1-4.61-7.07,23.12,23.12,0,0,1,1-7.5l28.08-77.25a21.2,21.2,0,0,1,6.83-9.72,17.69,17.69,0,0,1,21.6,0,21.05,21.05,0,0,1,6.84,9.76l28.08,77.25a23.8,23.8,0,0,1,.95,7.5,9.22,9.22,0,0,1-4.48,7,16.69,16.69,0,0,1-9.12,2.48,8,8,0,0,1-6.06-3,17.29,17.29,0,0,1-3.77-6.86Zm-7.17-21.38-12.64-39.67-12.65,39.67Z"/><path class="cls-2" d="M4278.08,537.93a55.31,55.31,0,0,1,3.73-20.43,48.41,48.41,0,0,1,10.68-16.5,47.75,47.75,0,0,1,16.43-10.8,55.19,55.19,0,0,1,20.67-3.79,63.73,63.73,0,0,1,13.3,1.54,34.72,34.72,0,0,1,12.49,5.16q5.28,3.63,5.28,9.38a13,13,0,0,1-2.4,8,8.12,8.12,0,0,1-6.94,3.2q-2.77,0-8.92-2.32a32.81,32.81,0,0,0-12.15-2.67q-9,0-15,4.25a25.24,25.24,0,0,0-8.86,11.45,43,43,0,0,0-2.9,16.16q0,17.91,8.92,26.22,7,6.55,17.64,6.55a24.5,24.5,0,0,0,9.5-1.56l7-3.28a13.6,13.6,0,0,1,4.69-1.1,9.25,9.25,0,0,1,7.55,3.35,12.09,12.09,0,0,1,2.74,7.89q0,6.75-7.36,11.09-9.87,6-25.43,6a52.86,52.86,0,0,1-18.87-3.45,46.94,46.94,0,0,1-16-10Q4278.09,567.16,4278.08,537.93Z"/><path class="cls-2" d="M4418.74,510.3v71a14.23,14.23,0,0,1-3.18,9.47,12.08,12.08,0,0,1-17.61,0,14.06,14.06,0,0,1-3.26-9.43v-71h-14.18a12.8,12.8,0,0,1-8.46-2.84,9.54,9.54,0,0,1-3.42-7.75,9.79,9.79,0,0,1,3.41-7.89,12.64,12.64,0,0,1,8.47-2.9h52a12.65,12.65,0,0,1,8.48,2.86,9.87,9.87,0,0,1,3.37,7.93,9.53,9.53,0,0,1-3.43,7.71,12.65,12.65,0,0,1-8.42,2.88Z"/><path class="cls-2" d="M4449.8,540.29a61,61,0,0,1,4.25-22.75,47.89,47.89,0,0,1,12.78-18.33q14.19-12.79,34.34-12.8a53.17,53.17,0,0,1,21.1,4.06,47.39,47.39,0,0,1,16.33,11.41A50.92,50.92,0,0,1,4549,519.07a61,61,0,0,1,3.62,21.22,67.41,67.41,0,0,1-4.21,23.86,48,48,0,0,1-12.94,19.06,45.78,45.78,0,0,1-15.65,9.37,56.09,56.09,0,0,1-39-.76A46.77,46.77,0,0,1,4464,580.39Q4449.81,565.38,4449.8,540.29Zm25.46.16a48.44,48.44,0,0,0,2.76,16.27,28.54,28.54,0,0,0,8.62,12.7q5.86,4.91,14.66,4.91,9,0,14.76-4.81a27.51,27.51,0,0,0,8.47-12.5,50.15,50.15,0,0,0,2.67-16.57,45.24,45.24,0,0,0-2.82-16,26.66,26.66,0,0,0-8.74-12.07q-5.93-4.56-14.64-4.56a22.82,22.82,0,0,0-9.81,2.25,25,25,0,0,0-8.13,6Q4475.26,524.92,4475.26,540.45Z"/><path class="cls-2" d="M4591.23,550.74v30.6a14.34,14.34,0,0,1-3.15,9.45,10.7,10.7,0,0,1-8.74,3.81,10.9,10.9,0,0,1-8.77-3.83,14.1,14.1,0,0,1-3.24-9.43v-77.9q0-6.78,3.83-10.57t10.69-3.8h24q15.93,0,25.76,8.12a29.52,29.52,0,0,1,7.93,10.37,30,30,0,0,1,2.82,12.73q0,14.1-8.12,22-5.34,5.12-16.39,7.66l20.31,22.3q4.62,5,5.46,8.42a20.16,20.16,0,0,1,.3,2.67,11.74,11.74,0,0,1-2.93,7.77,8.79,8.79,0,0,1-6.9,3.47q-8.12,0-12-5.14Zm0-16.7h14.82a13.49,13.49,0,0,0,9.24-3.27,10.94,10.94,0,0,0,3.72-8.62,11.18,11.18,0,0,0-4.06-8.78,13.92,13.92,0,0,0-9.4-3.53h-14.32Z"/><path class="cls-2" d="M4658.34,519.68a30.13,30.13,0,0,1,5.26-17.61,33.94,33.94,0,0,1,14-11.62,43.57,43.57,0,0,1,18.56-4,67.43,67.43,0,0,1,12.6,1.27,31.63,31.63,0,0,1,11.64,4.56,10.11,10.11,0,0,1,4.95,8.84,12,12,0,0,1-3.08,8.31,10.13,10.13,0,0,1-7.85,3.43,11.65,11.65,0,0,1-3.59-.5l-4.38-1.56a32.08,32.08,0,0,0-10.78-2,15.4,15.4,0,0,0-8.16,2.25,7,7,0,0,0-3.7,6.32q0,6.41,9.68,8.92l6.41,1.72q15.09,4.08,23.93,11t8.84,20.18q0,16.15-8.88,25.46a31.13,31.13,0,0,1-13.28,8.42,52.31,52.31,0,0,1-16.71,2.67q-15.93,0-27.33-5.49A17.05,17.05,0,0,1,4660,585a12.25,12.25,0,0,1-2.44-7.47,10.66,10.66,0,0,1,3.09-7.44,9.56,9.56,0,0,1,7.2-3.31,15.6,15.6,0,0,1,6.1,1.1l8.27,3.09a31.87,31.87,0,0,0,11.7,2.36,15.19,15.19,0,0,0,9.11-2.87,9.22,9.22,0,0,0,4-7.91,8.44,8.44,0,0,0-3.89-7.62,28.14,28.14,0,0,0-6.25-3q-3-1-10.44-3.22a84.69,84.69,0,0,1-15.36-5.83,23.94,23.94,0,0,1-9.28-8.64Q4658.34,528.67,4658.34,519.68Z"/><rect class="cls-1" x="2675.61" y="718.86" width="1438.15" height="223.12" rx="111.56"/><path class="cls-2" d="M4002.2,951.48h-1215a121.06,121.06,0,1,1,0-242.12h1215a121.06,121.06,0,1,1,0,242.12Zm-1215-223.12a102.06,102.06,0,1,0,0,204.12h1215a102.06,102.06,0,1,0,0-204.12Z"/><path class="cls-2" d="M2833.27,821.41q8.43,2.48,13.11,6.55a24.28,24.28,0,0,1,8.42,19,32.31,32.31,0,0,1-4.17,16.25,29.88,29.88,0,0,1-11.47,11.47,32.27,32.27,0,0,1-16.22,4.14h-31.36q-6.9,0-10.71-3.81t-3.81-10.71V789.24q0-6.78,3.83-10.65t10.69-3.87h23.7q13.8,0,21.57,6.56a25,25,0,0,1,6.37,8.25,22.68,22.68,0,0,1,2.36,10q0,8-2.86,12.92T2833.27,821.41Zm-32.31-7h12a10,10,0,0,0,7.24-2.82,9.59,9.59,0,0,0,2.9-7.17,7.32,7.32,0,0,0-3.39-6.44,13.78,13.78,0,0,0-7.86-2.29H2801Zm0,43.71h16.53q6.95,0,10-3.58,2.47-2.67,2.48-8.27-.61-10.63-13.11-10.64H2801Z"/><path class="cls-2" d="M2930.81,859h-39.93l-2.51,9q-3.28,12.35-10.63,12.35a16.48,16.48,0,0,1-8.95-2.46,9.63,9.63,0,0,1-4.61-7.07,23.12,23.12,0,0,1,1-7.5l28.08-77.25a21.15,21.15,0,0,1,6.84-9.72,17.67,17.67,0,0,1,21.59,0,21,21,0,0,1,6.84,9.76l28.08,77.25a23.75,23.75,0,0,1,1,7.5,9.22,9.22,0,0,1-4.48,7,16.78,16.78,0,0,1-9.12,2.48,8,8,0,0,1-6.06-3,17.29,17.29,0,0,1-3.77-6.86Zm-7.17-21.38L2911,798l-12.65,39.67Z"/><path class="cls-2" d="M2993.72,836.54v30.6a14.34,14.34,0,0,1-3.15,9.45,10.7,10.7,0,0,1-8.74,3.81,10.9,10.9,0,0,1-8.77-3.83,14.1,14.1,0,0,1-3.24-9.43v-77.9q0-6.78,3.83-10.57t10.69-3.8h24q15.93,0,25.76,8.12a29.52,29.52,0,0,1,7.93,10.37,30,30,0,0,1,2.82,12.73q0,14.1-8.12,22-5.34,5.11-16.39,7.66l20.32,22.3q4.61,5,5.45,8.42a20.16,20.16,0,0,1,.3,2.67,11.74,11.74,0,0,1-2.93,7.77,8.82,8.82,0,0,1-6.9,3.47q-8.12,0-12-5.14Zm0-16.7h14.82a13.49,13.49,0,0,0,9.24-3.27,10.94,10.94,0,0,0,3.72-8.62,11.18,11.18,0,0,0-4.06-8.78,13.91,13.91,0,0,0-9.39-3.53h-14.33Z"/><path class="cls-2" d="M3087.24,836.54v30.6a14.34,14.34,0,0,1-3.15,9.45,10.7,10.7,0,0,1-8.74,3.81,10.9,10.9,0,0,1-8.77-3.83,14.1,14.1,0,0,1-3.24-9.43v-77.9q0-6.78,3.83-10.57t10.69-3.8h24q15.93,0,25.76,8.12a29.4,29.4,0,0,1,7.93,10.37,30,30,0,0,1,2.82,12.73q0,14.1-8.12,22-5.34,5.11-16.39,7.66l20.32,22.3q4.61,5,5.45,8.42a20.16,20.16,0,0,1,.3,2.67,11.74,11.74,0,0,1-2.93,7.77,8.82,8.82,0,0,1-6.9,3.47q-8.12,0-12-5.14Zm0-16.7h14.82a13.46,13.46,0,0,0,9.24-3.27A10.94,10.94,0,0,0,3115,808a11.15,11.15,0,0,0-4.06-8.78,13.89,13.89,0,0,0-9.39-3.53h-14.33Z"/><path class="cls-2" d="M3156.86,867.14V786.42a14.18,14.18,0,0,1,3.21-9.43,10.85,10.85,0,0,1,8.8-3.83,10.72,10.72,0,0,1,8.73,3.83,14.31,14.31,0,0,1,3.16,9.43v80.72a14.38,14.38,0,0,1-3.14,9.45,10.73,10.73,0,0,1-8.75,3.81,10.9,10.9,0,0,1-8.77-3.83A14.1,14.1,0,0,1,3156.86,867.14Z"/><path class="cls-2" d="M3223.82,796.1v19.82h22.3a12.76,12.76,0,0,1,8.46,2.86,9.72,9.72,0,0,1,3.43,7.92,9.52,9.52,0,0,1-3.47,7.72,12.74,12.74,0,0,1-8.42,2.88h-22.3v20.16h24.66a12.73,12.73,0,0,1,8.52,2.82,9.82,9.82,0,0,1,3.33,7.93,9.64,9.64,0,0,1-3.39,7.75,12.61,12.61,0,0,1-8.46,2.88h-34q-6.9,0-10.71-3.81t-3.81-10.71V789.24q0-6.78,3.83-10.65t10.69-3.87h34a12.6,12.6,0,0,1,8.52,2.86,9.89,9.89,0,0,1,3.33,7.93,9.59,9.59,0,0,1-3.39,7.71,12.61,12.61,0,0,1-8.46,2.88Z"/><path class="cls-2" d="M3300.46,836.54v30.6a14.33,14.33,0,0,1-3.14,9.45,10.72,10.72,0,0,1-8.75,3.81,10.89,10.89,0,0,1-8.76-3.83,14.1,14.1,0,0,1-3.24-9.43v-77.9q0-6.78,3.83-10.57t10.69-3.8h24q15.93,0,25.76,8.12a29.64,29.64,0,0,1,7.93,10.37,30,30,0,0,1,2.82,12.73q0,14.1-8.12,22-5.34,5.11-16.39,7.66l20.31,22.3q4.62,5,5.45,8.42a19,19,0,0,1,.31,2.67,11.7,11.7,0,0,1-2.94,7.77,8.79,8.79,0,0,1-6.89,3.47q-8.13,0-12-5.14Zm0-16.7h14.83a13.49,13.49,0,0,0,9.24-3.27,10.94,10.94,0,0,0,3.72-8.62,11.18,11.18,0,0,0-4.06-8.78,13.92,13.92,0,0,0-9.4-3.53h-14.33Z"/><path class="cls-2" d="M3437.85,796.1v20.77h21.23a12.8,12.8,0,0,1,8.5,2.8,10.75,10.75,0,0,1,0,15.61,12.78,12.78,0,0,1-8.48,2.82h-21.23v29a14.38,14.38,0,0,1-3.14,9.45,10.73,10.73,0,0,1-8.75,3.81,10.91,10.91,0,0,1-8.77-3.83,14.15,14.15,0,0,1-3.23-9.43v-77.9q0-6.78,3.83-10.65t10.69-3.87H3463a12.61,12.61,0,0,1,8.48,2.86,9.83,9.83,0,0,1,3.38,7.93,9.56,9.56,0,0,1-3.43,7.71,12.68,12.68,0,0,1-8.43,2.88Z"/><path class="cls-2" d="M3541,859H3501.1l-2.51,9q-3.28,12.35-10.63,12.35a16.48,16.48,0,0,1-8.95-2.46,9.63,9.63,0,0,1-4.61-7.07,22.85,22.85,0,0,1,.95-7.5l28.08-77.25a21.2,21.2,0,0,1,6.83-9.72,17.69,17.69,0,0,1,21.6,0,21.05,21.05,0,0,1,6.84,9.76l28.08,77.25a23.75,23.75,0,0,1,.95,7.5,9.22,9.22,0,0,1-4.48,7,16.78,16.78,0,0,1-9.12,2.48,8,8,0,0,1-6.06-3,17.17,17.17,0,0,1-3.77-6.86Zm-7.16-21.38L3521.22,798l-12.65,39.67Z"/><path class="cls-2" d="M3576.11,823.73a55.31,55.31,0,0,1,3.74-20.43,48.41,48.41,0,0,1,10.68-16.5A47.75,47.75,0,0,1,3607,776a55.17,55.17,0,0,1,20.66-3.79,63.75,63.75,0,0,1,13.31,1.54,34.79,34.79,0,0,1,12.49,5.16q5.28,3.63,5.28,9.38a13,13,0,0,1-2.4,8,8.16,8.16,0,0,1-6.94,3.2c-1.85,0-4.83-.77-8.92-2.32a32.81,32.81,0,0,0-12.15-2.67q-9,0-15,4.25a25.24,25.24,0,0,0-8.86,11.45,43,43,0,0,0-2.9,16.16q0,17.91,8.92,26.22,7,6.55,17.64,6.55a24.45,24.45,0,0,0,9.49-1.56l7.05-3.28a13.6,13.6,0,0,1,4.69-1.1,9.25,9.25,0,0,1,7.55,3.35,12.09,12.09,0,0,1,2.74,7.89q0,6.75-7.36,11.09-9.87,5.94-25.43,6a52.82,52.82,0,0,1-18.87-3.45,46.94,46.94,0,0,1-16-10Q3576.11,853,3576.11,823.73Z"/><path class="cls-2" d="M3716.78,796.1v71a14.2,14.2,0,0,1-3.19,9.47,12.07,12.07,0,0,1-17.6,0,14.06,14.06,0,0,1-3.26-9.43v-71h-14.18a12.85,12.85,0,0,1-8.46-2.84,9.55,9.55,0,0,1-3.43-7.75,9.82,9.82,0,0,1,3.41-7.89,12.66,12.66,0,0,1,8.48-2.9h52a12.61,12.61,0,0,1,8.47,2.86,9.83,9.83,0,0,1,3.38,7.93,9.56,9.56,0,0,1-3.43,7.71,12.67,12.67,0,0,1-8.42,2.88Z"/><path class="cls-2" d="M3747.84,826.09a61,61,0,0,1,4.25-22.75A47.89,47.89,0,0,1,3764.87,785q14.18-12.81,34.34-12.8a53.3,53.3,0,0,1,21.09,4,47.36,47.36,0,0,1,16.33,11.42,50.79,50.79,0,0,1,10.45,17.19,61,61,0,0,1,3.62,21.22,67.41,67.41,0,0,1-4.21,23.86A48.07,48.07,0,0,1,3833.55,869a45.87,45.87,0,0,1-15.65,9.37,56.09,56.09,0,0,1-39-.76,46.77,46.77,0,0,1-16.85-11.43Q3747.85,851.18,3747.84,826.09Zm25.46.16a48.19,48.19,0,0,0,2.76,16.27,28.59,28.59,0,0,0,8.62,12.7q5.87,4.9,14.66,4.91,9,0,14.76-4.81a27.51,27.51,0,0,0,8.47-12.5,50.15,50.15,0,0,0,2.67-16.57,45.24,45.24,0,0,0-2.82-16,26.66,26.66,0,0,0-8.74-12.07q-5.92-4.56-14.64-4.56a22.82,22.82,0,0,0-9.81,2.25,25,25,0,0,0-8.13,6Q3773.3,810.72,3773.3,826.25Z"/><path class="cls-2" d="M3889.26,836.54v30.6a14.33,14.33,0,0,1-3.14,9.45,10.72,10.72,0,0,1-8.75,3.81,10.89,10.89,0,0,1-8.76-3.83,14.1,14.1,0,0,1-3.24-9.43v-77.9q0-6.78,3.83-10.57t10.69-3.8h24.05q15.93,0,25.76,8.12a29.64,29.64,0,0,1,7.93,10.37,30,30,0,0,1,2.82,12.73q0,14.1-8.12,22-5.34,5.11-16.39,7.66l20.31,22.3q4.62,5,5.45,8.42a19,19,0,0,1,.31,2.67,11.7,11.7,0,0,1-2.94,7.77,8.79,8.79,0,0,1-6.89,3.47q-8.13,0-12-5.14Zm0-16.7h14.83a13.49,13.49,0,0,0,9.24-3.27,10.94,10.94,0,0,0,3.72-8.62,11.18,11.18,0,0,0-4.06-8.78,13.92,13.92,0,0,0-9.4-3.53h-14.33Z"/><path class="cls-2" d="M3956.38,805.48a30.17,30.17,0,0,1,5.25-17.61,34,34,0,0,1,14-11.62,43.57,43.57,0,0,1,18.56-4,67.43,67.43,0,0,1,12.6,1.27,31.45,31.45,0,0,1,11.64,4.56,10.11,10.11,0,0,1,4.95,8.84,12,12,0,0,1-3.08,8.31,10.13,10.13,0,0,1-7.85,3.43,11.65,11.65,0,0,1-3.59-.5l-4.38-1.56a32.12,32.12,0,0,0-10.78-2,15.37,15.37,0,0,0-8.16,2.25,7,7,0,0,0-3.7,6.32q0,6.4,9.68,8.92l6.41,1.72q15.09,4.07,23.93,11t8.84,20.18q0,16.15-8.88,25.46a31.13,31.13,0,0,1-13.28,8.42,52.31,52.31,0,0,1-16.71,2.67q-15.93,0-27.33-5.49a17,17,0,0,1-6.44-5.19,12.2,12.2,0,0,1-2.44-7.46,10.64,10.64,0,0,1,3.09-7.44,9.56,9.56,0,0,1,7.2-3.31,15.6,15.6,0,0,1,6.1,1.1l8.27,3.09a31.83,31.83,0,0,0,11.7,2.36,15.26,15.26,0,0,0,9.11-2.87,9.22,9.22,0,0,0,4-7.91,8.45,8.45,0,0,0-3.89-7.62,28.14,28.14,0,0,0-6.25-3q-3-1-10.44-3.22a84.69,84.69,0,0,1-15.36-5.83,23.94,23.94,0,0,1-9.28-8.64Q3956.38,814.47,3956.38,805.48Z"/><path class="cls-2" d="M1871.6,882.16a9.5,9.5,0,0,1-5.77-17l804-613.84,11.53,15.1L1934.08,836.91,2672,535.82l7.18,17.6-804,328A9.39,9.39,0,0,1,1871.6,882.16Z"/><rect class="cls-2" x="1871.04" y="842.04" width="805.12" height="19" transform="translate(-41.52 120.37) rotate(-3.01)"/></g></g></svg>